<svg width="181" height="157" viewBox="0 0 181 157" fill="none" xmlns="http://www.w3.org/2000/svg">
<path d="M58.8311 1.85034C77.1409 -1.17957 97.7506 -0.2889 115.98 3.07104C133.63 6.33101 150.19 14.1407 161.78 28.1404C173.62 42.4303 179.341 60.5405 180.511 78.9304C181.681 97.3203 179.951 118.241 168.041 133.131C156.907 147.033 139.799 156.679 121.81 156.559C121.497 156.534 121.201 156.415 120.959 156.22C120.311 155.821 119.926 155.019 120.44 154.18C123.099 149.833 124.787 144.962 125.39 139.902C125.992 134.842 125.494 129.711 123.931 124.861C120.361 113.941 111.411 106.951 100.631 103.741C78.6009 97.171 55.1409 103.361 32.7109 100.871C-0.948972 97.1609 -8.51935 49.0309 9.48047 25.8708C14.8005 19.0308 22.1007 14.8605 29.9707 11.5105C39.2707 7.54051 48.8311 3.50034 58.8311 1.85034Z" fill="#075672"/>
<path d="M62.5015 69.3507C62.5015 69.2107 62.3915 68.3507 62.3915 68.2507C62.3915 67.8207 62.3915 65.8007 62.3915 65.3607C62.3235 65.2526 62.2856 65.1284 62.2815 65.0007C62.2779 64.8445 62.317 64.6903 62.3946 64.5546C62.4721 64.419 62.5851 64.307 62.7215 64.2307C64.8515 64.3407 66.9315 64.0107 69.0915 64.0107C71.9515 64.0107 73.7815 64.7007 75.0915 67.2307C76.9515 70.8507 74.7615 74.4407 72.4115 74.6607C73.6915 74.9207 75.9315 75.7207 76.5515 77.7307C77.1028 79.2547 77.3508 80.8717 77.2815 82.4907C77.1556 83.6058 76.7382 84.6681 76.0715 85.5707C75.7997 86.2022 75.3888 86.7641 74.8693 87.2143C74.3497 87.6646 73.7352 87.9915 73.0715 88.1707C72.7645 88.3542 72.4249 88.4764 72.0715 88.5307V88.4307C71.6245 88.5938 71.1563 88.6915 70.6815 88.7207C70.5723 88.7404 70.4606 88.7404 70.3515 88.7207C70.1315 88.7907 70.1315 88.8307 69.9515 89.0107C69.7012 89.0811 69.4408 89.1082 69.1815 89.0907C69.1815 88.9407 69.2915 89.0107 69.2915 88.8707C68.7815 88.8707 68.2315 89.1607 67.6815 89.1607C67.1315 89.1607 66.5115 88.8707 65.9215 88.8707C65.8327 88.8656 65.7447 88.8903 65.6715 88.9407C65.1734 89.1058 64.6555 89.2033 64.1315 89.2307H63.8715C63.5415 88.9707 63.6215 88.0907 63.2915 87.7307C63.2915 87.7307 63.2915 87.5807 63.2915 87.5407L62.5015 69.3507ZM67.7815 72.8307L69.7815 72.6107C71.9715 72.1007 71.6815 68.1407 68.1715 68.1407C67.9515 68.1407 67.6515 68.0707 67.6515 68.3607C67.6615 69.6507 67.7815 71.5107 67.7815 72.8307ZM67.7115 84.8307C68.105 84.8134 68.4963 84.7632 68.8815 84.6807C69.1415 84.6107 70.3815 84.2807 70.6015 84.2407C70.8215 84.2007 70.6015 84.1307 70.8215 84.0607L71.0115 83.9907C71.4947 83.8193 71.9291 83.5332 72.2774 83.157C72.6257 82.7808 72.8776 82.3257 73.0115 81.8307C73.1215 81.5707 73.6715 78.5707 71.0115 77.7607C70.8215 77.7607 70.5015 77.7607 70.3115 77.6507C69.7615 77.6507 69.4015 77.5507 68.9215 77.5507C68.4415 77.5507 68.1915 77.7307 67.7515 77.7307L67.7115 84.8307Z" fill="#FCF0D4"/>
<path d="M81.4309 88.1707C81.4309 87.9807 81.4309 87.8407 81.5709 87.8007C81.4674 87.7008 81.3849 87.5812 81.3282 87.449C81.2715 87.3168 81.2419 87.1745 81.2409 87.0307C81.2409 86.7707 81.1009 86.0307 81.1009 86.0307V76.2307C81.1009 76.0107 81.1009 75.1407 81.1009 74.9907C81.1009 74.0707 80.9509 73.1607 80.9509 72.2807V72.1307C80.9732 72.046 80.9999 71.9626 81.0309 71.8807C81.0309 71.8807 80.9509 71.5907 80.9509 71.5507C80.9127 71.2587 80.8893 70.965 80.8809 70.6707C80.8892 70.6059 80.9132 70.5441 80.9509 70.4907V70.3407C80.9225 70.2555 80.8991 70.1686 80.8809 70.0807C80.8589 69.8512 80.8589 69.6202 80.8809 69.3907C80.8509 68.9011 80.8509 68.4102 80.8809 67.9207C80.7169 67.3524 80.6427 66.7619 80.6609 66.1707C80.6609 66.0207 80.6609 65.9107 80.6609 65.8007C80.6609 65.6907 80.6609 65.6507 80.6609 65.5507C80.7138 65.3543 80.822 65.1773 80.9728 65.0408C81.1235 64.9043 81.3103 64.814 81.5109 64.7807C81.7609 64.7807 82.9709 64.7007 83.2609 64.7007H83.7709C84.3423 64.7152 84.9098 64.7992 85.4609 64.9507C85.5309 64.9507 85.5309 64.9507 85.6009 64.9507C85.8609 65.0607 85.9009 65.5407 85.9009 65.8307C85.9009 66.1207 85.7509 65.8307 85.6409 66.0107L85.5009 66.3807C85.5009 66.4907 85.9009 67.0407 85.9009 67.4407C85.876 67.8103 85.8259 68.1779 85.7509 68.5407V71.2507C85.7509 72.7907 85.8609 74.3307 85.8609 75.8607V76.7107C85.6009 76.9607 85.7209 77.5507 85.7209 77.8807C85.7209 78.2107 85.7209 78.3507 85.7209 78.6107V78.6807C85.7209 78.8307 85.7209 79.8507 85.7209 80.0007V84.5407C85.5977 84.8424 85.5332 85.1648 85.5309 85.4907C85.5309 85.8907 85.6009 86.1507 85.6009 86.5507V86.8807C85.3909 86.9607 85.5009 87.8007 85.3109 87.8807H85.0909C85.0909 87.8807 85.0909 88.0607 85.0909 88.1007C85.0909 88.1407 84.4709 88.3907 84.2809 88.5007C83.5366 88.8591 82.7264 89.06 81.9009 89.0907C81.6109 89.0907 81.8009 88.6807 81.6109 88.5407C81.6109 88.5407 81.6109 88.5407 81.5409 88.5407L81.4709 88.4707L81.4309 88.1707Z" fill="#FCF0D4"/>
<path d="M89.7812 87.4308C89.6508 87.338 89.5509 87.2087 89.494 87.0592C89.437 86.9097 89.4256 86.7467 89.4612 86.5908L89.3112 72.5908C89.3112 71.1708 89.4212 69.7008 89.4212 68.2708V68.1608C89.4212 67.4308 89.3112 65.7108 89.3112 65.6808L89.2012 65.2008C89.2012 65.2008 89.3812 64.7208 89.4612 64.5808C89.6712 64.1708 90.0812 64.4308 90.4612 64.2808H92.1512C92.3487 64.3732 92.5631 64.4242 92.7812 64.4308C93.6612 64.4308 94.5712 64.3508 95.4912 64.3508C97.0312 64.3508 98.4912 64.4608 100.031 64.4308L100.211 64.5008C100.211 64.5008 100.361 64.4308 100.391 64.4308H100.611C100.72 64.4135 100.832 64.4246 100.935 64.4632C101.038 64.5017 101.13 64.5664 101.201 64.6508C101.244 64.6174 101.291 64.5904 101.341 64.5708C101.341 64.5708 101.421 64.5708 101.421 64.6508C101.745 65.5738 101.966 66.5295 102.081 67.5008C102.081 67.6808 102.261 67.7608 102.261 67.9808C102.261 68.2008 101.641 68.4508 101.341 68.4908H101.271L101.161 68.6408C100.342 68.6584 99.5242 68.7185 98.7112 68.8208C98.5612 68.8208 97.2412 68.8908 96.7112 68.8908C96.1812 68.8908 94.4112 68.8208 94.2612 69.5508C94.2612 69.7308 94.2612 70.6508 94.1912 70.8308C94.1212 71.0108 94.1912 72.4408 94.1912 72.7008H95.0712C95.0712 73.0308 97.0712 72.9208 97.5212 72.9608C97.9712 73.0008 98.1512 73.2508 98.4412 73.2508C98.4412 73.2508 98.6212 73.1808 98.6612 73.1808H98.9912C99.1712 73.1808 99.5012 73.1008 99.5712 73.4008C99.5712 73.4008 99.5712 73.5108 99.5712 73.5408C99.7365 74.0525 99.834 74.5837 99.8612 75.1208V75.4308C99.7512 75.4308 99.7512 75.5008 99.7512 75.5708C99.7512 75.6408 99.9412 75.7208 99.9412 75.8708C99.9412 76.0208 99.9412 76.0508 99.8612 76.0908V77.1908C99.8612 77.3308 99.3912 77.5908 99.2112 77.5908H97.4112C97.3012 77.7308 97.2312 77.6608 97.0512 77.6608L94.7412 77.9508C94.5463 77.9646 94.3525 77.9913 94.1612 78.0308L94.0512 78.2508V82.9708C94.0332 83.1443 93.9963 83.3153 93.9412 83.4808V83.5608C93.9412 83.5608 94.0112 83.6308 94.0512 83.6308C95.3792 83.4857 96.716 83.4356 98.0512 83.4808H100.361C100.471 83.4808 100.871 83.4808 100.911 83.5608H101.021C101.229 83.5736 101.436 83.5969 101.641 83.6308V83.9608L101.791 83.7008C103.371 83.7008 103.371 85.3508 103.371 86.6308V86.8508C102.891 86.8508 103.371 87.4708 102.861 87.4708C102.711 87.4708 102.671 87.4008 102.601 87.2208V87.8008C102.601 87.9108 101.721 88.0908 101.601 88.0908C100.101 88.0908 98.6012 88.2808 97.1312 88.4608H92.7812C92.6886 88.4985 92.5908 88.5221 92.4912 88.5308H91.1712C90.6212 88.5308 90.7312 88.8308 90.1712 88.8308C89.9912 88.8308 89.4812 87.9108 89.4812 87.7708C89.4984 87.6934 89.535 87.6216 89.5875 87.5622C89.6399 87.5028 89.7066 87.4575 89.7812 87.4308ZM92.5712 59.1408L92.4612 59.0308V58.9508C92.4988 58.834 92.5224 58.7131 92.5312 58.5908C92.5836 58.5495 92.6454 58.522 92.7112 58.5108L92.7912 58.2908C92.8418 58.2595 92.8888 58.2226 92.9312 58.1808C93.1046 58.1015 93.2909 58.0541 93.4812 58.0408H95.3912C96.0812 58.0408 97.5812 59.9408 97.9512 60.4208C97.9512 60.4208 98.0912 61.0808 98.1312 61.1508C98.1712 61.2208 97.9812 61.8408 97.6512 61.8408H96.0412C95.7112 61.7708 95.3112 61.8408 95.0412 61.6608C94.7547 61.5029 94.4836 61.3188 94.2312 61.1108C93.8312 60.6708 93.5012 60.2308 93.1012 59.8308C92.9305 59.6962 92.7701 59.5491 92.6212 59.3908C92.6212 59.3908 92.5512 59.2808 92.5512 59.2808C92.5512 59.2808 92.4812 59.2108 92.5212 59.1808L92.5712 59.1408ZM99.8412 84.4308C98.8412 84.4308 97.9012 84.5708 96.9112 84.6508H96.1812H96.0712C95.4812 84.8008 94.8212 84.6508 94.2412 84.8008L93.9412 85.0208H94.9412C97.2112 85.0208 99.4112 84.7608 101.681 84.7608V84.3208C101.681 84.2508 101.931 84.1808 101.931 84.0308V83.9608C101.931 83.9608 101.821 84.0308 101.791 84.0708C101.721 84.0708 101.611 83.8808 101.531 83.8808C101.011 83.8808 100.421 84.3608 99.8412 84.4308ZM100.131 76.1508C100.12 76.1461 100.111 76.1384 100.105 76.1286C100.099 76.1189 100.095 76.1075 100.095 76.0958C100.095 76.0841 100.099 76.0727 100.105 76.0629C100.111 76.0531 100.12 76.0454 100.131 76.0408C100.141 76.0518 100.146 76.066 100.146 76.0808C100.146 76.0955 100.141 76.1098 100.131 76.1208V76.1508Z" fill="#FCF0D4"/>
<path d="M118.651 89.4309H118.581C118.431 89.2809 118.251 89.3209 118.211 89.2409C117.837 88.467 117.384 87.7333 116.861 87.0509C116.711 86.7909 115.981 85.3609 115.861 85.1109C115.702 84.5878 115.44 84.1017 115.091 83.6809C115.021 83.5309 114.871 83.4909 114.761 83.4209C114.511 82.9509 114.211 82.5109 113.991 82.0709C113.991 81.9209 113.881 81.9909 113.811 81.9209C113.741 81.8509 113.591 80.7109 113.151 80.7109C113.111 80.7088 113.071 80.7148 113.033 80.7285C112.995 80.7423 112.961 80.7635 112.931 80.7909C112.931 80.6409 112.821 80.3809 112.671 80.3809C112.617 80.3998 112.567 80.4267 112.521 80.4609C112.487 80.2392 112.386 80.0334 112.231 79.8709C112.151 79.8709 112.011 79.8709 111.971 79.9409C112.121 81.5609 111.971 83.1309 112.151 84.8109L112.411 87.9209C112.411 88.1809 112.191 88.2909 111.971 88.4409C111.867 88.5757 111.746 88.6967 111.611 88.8009C110.711 89.1088 109.772 89.284 108.821 89.3209H108.311C108.311 89.1709 108.021 89.2409 108.021 89.2409C107.761 89.2409 108.021 88.8009 107.911 88.6909C107.823 88.6725 107.745 88.6227 107.691 88.5509C107.683 88.5248 107.683 88.497 107.691 88.4709C107.691 88.4009 107.771 88.2909 107.771 88.1809C107.771 88.0709 107.441 87.5609 107.441 87.1809L106.781 65.4309C106.781 65.2109 107.071 64.7009 107.041 64.6209C107.011 64.5409 107.371 64.5509 107.441 64.5509C107.511 64.5509 107.441 64.4809 107.511 64.4809C107.621 64.4809 107.771 64.5509 107.951 64.5509C108.131 64.5509 108.571 64.3709 108.861 64.3709H108.971C109.971 64.3709 111.101 64.1509 111.901 64.1509H112.521C112.821 64.1509 113.991 64.3309 114.391 64.3709H114.471C115.964 64.8092 117.429 65.3334 118.861 65.9409C119.793 66.5452 120.557 67.3756 121.082 68.3548C121.606 69.334 121.875 70.4301 121.861 71.5409C121.861 72.0909 121.981 73.5409 121.501 73.8909L121.321 74.7609C121.162 75.265 120.965 75.7565 120.731 76.2309C120.731 76.2309 120.581 76.3709 120.551 76.4109C120.331 76.4809 120.141 76.8909 120.071 77.1109L118.831 78.3509C118.197 78.6175 117.593 78.9528 117.031 79.3509V79.4309C117.28 79.7121 117.501 80.0169 117.691 80.3409H117.771C117.771 80.7809 118.241 80.9309 118.391 81.3409C118.391 81.5209 118.611 81.4809 118.721 81.6609C118.9 82.0981 119.121 82.5168 119.381 82.9109C119.601 83.2409 120.001 83.4209 120.071 83.8609C120.071 83.8609 120.071 83.8609 120.141 83.8609C120.441 83.9309 120.731 84.6709 120.801 84.9209C120.942 85.1321 121.118 85.3181 121.321 85.4709C121.941 86.2809 122.161 86.9709 123.221 87.3009C123.243 87.3094 123.262 87.3246 123.274 87.3444C123.287 87.3642 123.293 87.3875 123.291 87.4109C123.291 87.5209 123.151 87.6009 123.151 87.6709H123.221C123.221 87.6709 123.371 87.7409 123.401 87.7409V87.8509C123.353 87.9428 123.316 88.0402 123.291 88.1409V88.2509C123.277 88.3672 123.24 88.4795 123.181 88.5809L122.961 88.6909V88.8409C122.961 88.9509 122.591 89.0309 122.591 89.0309L122.441 89.1709C121.917 89.4158 121.337 89.5159 120.761 89.4609C120.023 89.4058 119.289 89.309 118.561 89.1709C118.561 89.1709 118.651 89.3409 118.651 89.4309ZM111.951 77.0509C111.951 77.0509 112.251 76.9809 112.251 76.9409L112.321 76.8709C113.011 77.2009 115.211 75.5209 115.501 75.2209C116.501 74.4909 116.751 71.4509 116.751 70.6109C116.751 67.9009 114.521 67.6109 111.881 67.7909C111.621 67.9709 111.881 67.8709 111.661 68.1209L111.591 68.0509V75.0509C111.661 75.6819 111.697 76.3161 111.701 76.9509C111.781 76.9832 111.866 77.0001 111.951 77.0009V77.0509ZM123.631 88.2209V88.2909L123.561 88.2209H123.631Z" fill="#FCF0D4"/>
<path d="M126.411 87.4308C126.28 87.3384 126.179 87.2096 126.12 87.0602C126.062 86.9109 126.048 86.7477 126.081 86.5908L125.931 72.5908C125.931 71.1708 126.041 69.7008 126.041 68.2708V68.1608C126.041 67.4308 125.931 65.7108 125.931 65.6808L125.821 65.2008C125.882 64.9843 125.97 64.7761 126.081 64.5808C126.301 64.1708 126.701 64.4308 127.081 64.2808H128.781C129.015 64.363 129.265 64.3903 129.511 64.3608C130.391 64.3608 131.311 64.2808 132.221 64.2808C133.761 64.2808 135.221 64.3908 136.761 64.3608L136.951 64.4308C136.951 64.4308 137.091 64.3608 137.131 64.3608H137.351C137.459 64.3443 137.569 64.3559 137.67 64.3944C137.772 64.433 137.862 64.4972 137.931 64.5808C137.977 64.5466 138.028 64.5196 138.081 64.5008C138.081 64.5008 138.151 64.5008 138.151 64.5808C138.484 65.5011 138.706 66.4579 138.811 67.4308C138.811 67.6108 138.991 67.6908 138.991 67.9108C138.991 68.1308 138.371 68.3808 138.081 68.4208H138.011L137.901 68.5708C137.079 68.588 136.258 68.6481 135.441 68.7508C135.301 68.7508 133.981 68.8208 133.441 68.8208C132.901 68.8208 131.131 68.7508 130.981 69.4808C130.981 69.6608 130.981 70.5808 130.911 70.7608C130.841 70.9408 130.911 72.3708 130.911 72.6308H131.791C131.791 72.9608 133.791 72.8508 134.241 72.8908C134.691 72.9308 134.861 73.1808 135.151 73.1808C135.151 73.1808 135.341 73.1108 135.371 73.1108H135.781C135.971 73.1108 136.301 73.0308 136.371 73.3308C136.371 73.3308 136.371 73.4408 136.371 73.4708C136.532 73.9837 136.629 74.5143 136.661 75.0508V75.4308C136.551 75.4308 136.551 75.5008 136.551 75.5708C136.551 75.6408 136.731 75.7208 136.731 75.8708C136.731 76.0208 136.731 76.0508 136.661 76.0908V77.1908C136.661 77.3308 136.181 77.5908 136.001 77.5908H134.211C134.101 77.7308 134.021 77.6608 133.841 77.6608L131.531 77.9508C131.333 77.964 131.136 77.9907 130.941 78.0308L130.831 78.2508V82.9708C130.818 83.145 130.781 83.3166 130.721 83.4808V83.5608C130.721 83.5608 130.801 83.6308 130.831 83.6308C132.159 83.4854 133.496 83.4353 134.831 83.4808H137.131C137.241 83.4808 137.651 83.4808 137.681 83.5608H137.781C137.992 83.5731 138.203 83.5965 138.411 83.6308V83.9608L138.551 83.7008C140.121 83.7008 140.121 85.3508 140.121 86.6308V86.8508C139.651 86.8508 140.121 87.4708 139.611 87.4708C139.461 87.4708 139.431 87.4008 139.351 87.2208V87.8008C139.351 87.9108 138.471 88.0908 138.351 88.0908C136.851 88.0908 135.351 88.2808 133.881 88.4608H129.521C129.429 88.4995 129.331 88.5232 129.231 88.5308H127.981C127.431 88.5308 127.541 88.8308 126.981 88.8308C126.791 88.8308 126.281 87.9108 126.281 87.7708C126.278 87.6448 126.325 87.5226 126.411 87.4308ZM136.511 84.3608C135.511 84.3608 134.571 84.5008 133.581 84.5808H132.851H132.741C132.161 84.7308 131.501 84.5808 130.911 84.7308L130.621 84.9508H131.621C133.891 84.9508 136.081 84.6908 138.351 84.6908V84.2508C138.351 84.1808 138.611 84.1108 138.611 83.9608V83.8908C138.611 83.8908 138.501 83.9608 138.461 84.0008C138.381 84.0008 138.271 83.8108 138.201 83.8108C137.681 83.8808 137.101 84.3608 136.511 84.4308V84.3608ZM136.801 76.0808C136.791 76.0761 136.781 76.0684 136.775 76.0586C136.769 76.0489 136.765 76.0374 136.765 76.0258C136.765 76.0141 136.769 76.0027 136.775 75.9929C136.781 75.9831 136.791 75.9754 136.801 75.9708C136.811 75.9721 136.821 75.9753 136.829 75.9803C136.838 75.9853 136.845 75.9919 136.851 75.9998C136.857 76.0077 136.862 76.0167 136.864 76.0263C136.867 76.0359 136.868 76.0459 136.866 76.0558C136.865 76.0656 136.862 76.0751 136.857 76.0837C136.852 76.0923 136.845 76.0998 136.837 76.1059C136.829 76.1119 136.82 76.1163 136.811 76.1189C136.801 76.1214 136.791 76.1221 136.781 76.1208L136.801 76.0808Z" fill="#FCF0D4"/>
<path d="M31.8711 51.3407C31.8711 51.0607 32.0611 50.8207 32.0611 50.5807C32.0611 50.3407 31.9611 50.1107 31.9611 49.9207C31.9611 49.5407 32.1511 49.4007 32.2911 49.0207C32.7811 45.4307 33.7811 42.2607 34.5611 38.8007C34.7862 37.4197 35.1206 36.0588 35.5611 34.7307C35.6111 34.7307 36.8011 30.3307 36.8011 30.0907C37.5011 27.4907 38.2111 24.8407 38.7311 22.1907L39.1611 21.2907V21.2007H39.4911C40.0611 21.2007 40.4911 21.4407 41.1011 21.4407C41.2411 21.4407 41.2911 21.4407 41.4311 21.4407H41.5711C41.5711 21.4407 41.6711 21.5807 41.7111 21.5807C41.7511 21.5807 41.9511 21.5807 42.0011 21.5807C43.8474 21.6165 45.609 22.3613 46.9211 23.6607C47.9211 24.6607 48.6711 30.1007 49.0511 31.5607C49.6611 34.1207 50.2811 36.6307 50.9411 39.1307V39.9407C51.2711 40.0807 51.5111 42.6807 51.6511 43.2007L51.8411 43.3507C51.9811 43.7707 51.9811 44.2907 52.1211 44.6207C52.251 44.8652 52.3946 45.1023 52.5511 45.3307C53.1811 46.7421 53.6572 48.2173 53.9711 49.7307V49.8307L54.4011 50.2107L54.5011 50.3007V50.3507C54.5011 50.5407 54.3111 50.5907 54.3111 50.7307V50.8707C54.3111 50.8707 54.4511 51.1107 54.5011 51.1107V51.2007C54.2611 51.5807 54.4011 51.9607 54.2611 51.9607C54.0883 51.9807 53.9139 51.9807 53.7411 51.9607C53.6873 52.0601 53.6236 52.1539 53.5511 52.2407C52.8767 52.4434 52.1752 52.5412 51.4711 52.5307H50.1411H49.9511C49.5596 52.5182 49.169 52.4848 48.7811 52.4307C48.6411 52.3407 48.5911 52.3407 48.5911 52.2007C48.5911 52.0607 48.5911 52.0107 48.8311 52.0107C48.4011 51.6807 48.2111 50.6807 47.9311 50.4907C47.9311 50.4907 47.9311 49.9307 47.9311 49.7807C47.7715 49.4159 47.6443 49.0378 47.5511 48.6507C47.4243 48.3231 47.3142 47.9894 47.2211 47.6507C47.0311 47.1307 46.9811 46.0407 46.4211 45.9407C46.0262 45.8908 45.629 45.8608 45.2311 45.8507C44.7611 45.8507 44.3811 46.2807 43.9511 46.4207C42.8444 46.8481 41.683 47.1174 40.5011 47.2207V47.1307C40.6683 47.0616 40.8427 47.0112 41.0211 46.9807C41.1805 46.9606 41.3417 46.9606 41.5011 46.9807C41.5011 46.9807 42.0611 46.7507 42.1611 46.7007C42.2611 46.6507 42.2511 46.6107 42.3011 46.6107H42.1611C41.3111 46.6107 40.4511 46.9807 39.6011 46.9807C39.5112 46.9534 39.429 46.9055 39.3611 46.8407C38.7011 46.8407 38.9311 47.2207 38.7411 47.8407C38.7411 47.9807 38.6011 47.9807 38.6511 48.1707L38.1711 50.1707C37.9234 50.5251 37.7624 50.9327 37.7011 51.3607C37.3211 51.5007 37.5111 52.0207 37.1311 52.2107C36.7511 52.4007 36.1311 52.4007 35.7111 52.5907C35.7111 52.5907 35.4811 52.7307 35.4811 52.7707H35.3811C35.3627 52.7707 35.3445 52.7671 35.3275 52.76C35.3105 52.753 35.2951 52.7427 35.2821 52.7297C35.2691 52.7167 35.2588 52.7012 35.2518 52.6843C35.2447 52.6673 35.2411 52.6491 35.2411 52.6307C35.0011 52.6307 32.8311 53.0607 31.9811 51.5407L31.8711 51.3407ZM41.4711 37.6707C41.1267 38.4771 40.8589 39.3141 40.6711 40.1707H41.0011L44.7811 39.7507L44.8811 39.6107C44.8293 39.438 44.7957 39.2604 44.7811 39.0807C44.4111 37.9007 43.9811 36.7207 43.6511 35.4907C43.4111 34.5907 43.2211 33.6007 42.8911 32.7007C42.4211 34.3507 42.0411 36.0607 41.4711 37.6707ZM52.1711 50.6707C52.1688 50.6109 52.1497 50.553 52.1161 50.5035C52.0826 50.454 52.0358 50.4149 51.9811 50.3907C51.9811 50.5807 52.0211 50.6307 52.1711 50.6307V50.6707Z" fill="#FCF0D4"/>
<path d="M57.3711 37.6707V33.6707C57.3711 32.2507 57.5111 25.6707 57.5611 24.2507L57.7911 21.7007C57.777 21.4684 57.8536 21.2396 58.0046 21.0625C58.1556 20.8853 58.3694 20.7736 58.6011 20.7507L59.1211 20.8507H59.3111C59.9711 20.8507 60.6811 20.7507 61.3911 20.7507H61.7211L63.5211 21.0807C64.9911 21.4607 67.9211 21.4207 69.3911 22.0807C69.5811 22.0807 71.3311 22.8407 71.5611 22.9807C72.7919 23.4259 73.8541 24.2423 74.6011 25.317C75.348 26.3918 75.7429 27.6719 75.7311 28.9807V29.8307C75.6304 30.1044 75.5665 30.3902 75.5411 30.6807L75.3011 31.7707C75.2798 31.8505 75.2496 31.9277 75.2111 32.0007V32.8607C75.1611 33.2807 74.9211 33.6607 74.8711 33.9907C74.8414 34.6485 74.7305 35.3001 74.5411 35.9307C74.3511 36.3107 74.1711 36.6407 74.0211 37.0207C73.8782 37.772 73.6878 38.5135 73.4511 39.2407C73.3081 39.4982 73.1334 39.7367 72.9311 39.9507V40.1907C72.8411 40.6207 72.4111 40.6607 72.1311 40.9507C72.1311 40.9507 72.0411 41.0407 72.0411 41.0907L71.6111 41.7007C71.1369 41.9056 70.6448 42.0663 70.1411 42.1807C69.8111 42.2707 68.3011 42.5607 67.9711 42.6007C67.6411 42.6407 64.3711 43.0307 63.9011 43.0307V44.2607C63.9011 44.5907 63.8511 47.4807 63.8511 47.8107C63.8511 48.9407 63.9911 51.2207 63.3811 52.1607C63.1411 52.4507 63.1911 52.3007 62.8611 52.3007C62.5311 52.3007 62.7111 52.5907 62.5211 52.6307C61.5775 53.1497 60.527 53.444 59.4511 53.4907C58.7911 53.4907 58.2211 53.6807 57.9311 52.9207C57.9311 52.7307 57.5611 51.7807 57.5611 51.5907C57.4611 46.7507 57.3711 42.4907 57.3711 37.6707ZM64.0911 39.3207H64.2711C69.2711 39.3207 69.3411 32.0807 69.2711 28.4407C69.2711 26.6907 67.7611 26.5907 65.9111 26.0707C65.6711 25.9807 64.4911 25.6007 64.2511 25.5507H64.1111C64.0211 25.5507 63.8811 25.5507 63.8811 25.7407V25.7907C63.8811 25.7907 63.8811 26.0807 63.9711 26.1207C64.1111 26.9307 63.8811 28.7207 63.8811 35.9207C63.8797 37.0573 63.9498 38.1929 64.0911 39.3207Z" fill="#FCF0D4"/>
<path d="M94.1313 53.5607H94.0312C93.8512 53.3707 93.6112 53.4207 93.5612 53.3307C93.0705 52.3235 92.4738 51.3714 91.7812 50.4907C91.5913 50.1607 90.6513 48.3107 90.5013 47.9807C90.2939 47.3068 89.9539 46.6812 89.5013 46.1407C89.4013 45.9507 89.2212 45.9007 89.0712 45.8007C88.7412 45.1907 88.3612 44.6207 88.0712 44.0507C88.0212 43.8607 87.9313 43.9607 87.8313 43.8607C87.6913 43.5807 87.5512 42.3007 86.9812 42.3007C86.9303 42.2977 86.8792 42.305 86.8311 42.3222C86.783 42.3393 86.7388 42.3661 86.7012 42.4007C86.7512 42.2107 86.5612 41.8807 86.3712 41.8807C86.303 41.8991 86.2387 41.9296 86.1812 41.9707C86.1357 41.6843 86.0031 41.4189 85.8013 41.2107C85.7113 41.2107 85.5213 41.2107 85.4713 41.3107C85.6613 43.3907 85.5212 45.4307 85.7112 47.6007L86.0412 51.6007C86.0412 51.9307 85.7613 52.0807 85.4713 52.2707C85.3353 52.4467 85.1773 52.6047 85.0013 52.7407C83.839 53.1316 82.6266 53.3539 81.4012 53.4007H80.7812C80.7812 53.2107 80.4012 53.3107 80.4012 53.3107C80.0712 53.2607 80.4012 52.7407 80.2612 52.6007C80.1212 52.4607 79.9713 52.4607 79.9713 52.4107C79.9623 52.378 79.9623 52.3434 79.9713 52.3107C79.9713 52.2207 80.0612 52.0807 80.0612 51.9307C80.0612 51.7807 79.6413 51.1307 79.6413 50.7107L78.7812 22.6707V22.5707C78.7812 22.2907 79.1613 21.5707 79.1113 21.5707C79.0613 21.5707 79.5413 21.4807 79.6313 21.4807C79.7213 21.4807 79.6312 21.3807 79.7312 21.3807C79.8712 21.3807 80.0613 21.4807 80.3013 21.4807C80.5413 21.4807 81.1112 21.2407 81.4812 21.2407H81.6212C82.8612 21.2407 84.3713 20.9507 85.4113 20.9507H86.2112C86.5912 20.9507 88.1113 21.1907 88.6313 21.2407H88.7812C90.7116 21.7971 92.6081 22.4649 94.4612 23.2407C96.9712 24.5707 98.3913 27.8307 98.3913 30.4807C98.3913 31.1907 98.5312 33.1307 97.9212 33.4807L97.6812 34.6207C97.48 35.2704 97.2259 35.9025 96.9212 36.5107L96.6812 36.7507C96.4012 36.8407 96.1612 37.3607 96.0712 37.6507L94.4612 39.2507C93.6457 39.5755 92.8678 39.9879 92.1413 40.4807V40.6707C92.4628 41.0386 92.7475 41.4372 92.9913 41.8607H93.0912C93.0912 42.4207 93.7013 42.6107 93.8913 43.0907C93.8913 43.3207 94.1812 43.2807 94.3212 43.5107C94.5575 44.0709 94.8419 44.6096 95.1712 45.1207C95.4512 45.5507 95.9812 45.7807 96.0712 46.3507C96.0712 46.3507 96.1213 46.3507 96.1613 46.3507C96.5413 46.4507 96.9213 47.3507 97.0213 47.7207C97.1213 48.0907 97.4912 48.2407 97.6812 48.4307C98.4812 49.4307 98.7713 50.3707 100.141 50.8007C100.231 50.8007 100.231 50.8907 100.231 50.9407C100.231 50.9907 100.041 51.1807 100.041 51.2707H100.141C100.141 51.2707 100.331 51.3707 100.381 51.3707V51.5107C100.31 51.6278 100.259 51.7564 100.231 51.8907L100.281 52.0407C100.267 52.1894 100.219 52.3329 100.141 52.4607L99.8513 52.6007C99.8513 52.6007 99.8512 52.7907 99.9012 52.7907C99.9012 52.9307 99.4312 53.0307 99.4312 53.0307L99.2413 53.2207C98.5624 53.5423 97.8089 53.6737 97.0612 53.6007C96.1088 53.5219 95.1609 53.3951 94.2213 53.2207C94.2213 53.2207 94.1313 53.5207 94.1313 53.5607ZM85.4713 37.5607C85.5213 37.5607 85.8513 37.4707 85.8513 37.4207L85.9413 37.3207C86.8413 37.7507 89.6812 35.5707 90.0612 35.1907C91.3912 34.2507 91.6712 30.3207 91.6712 29.1907C91.6712 25.6907 88.7813 25.2707 85.3813 25.5507C85.0413 25.7907 85.3812 25.6407 85.0912 25.9807L85.0013 25.8807V34.8807C85.09 35.6977 85.1367 36.5188 85.1413 37.3407C85.2334 37.4403 85.3459 37.5187 85.4713 37.5707V37.5607ZM100.571 51.9907V52.0907L100.471 51.9907H100.571Z" fill="#FCF0D4"/>
<path d="M102.982 51.1008C102.812 50.9832 102.68 50.8179 102.604 50.6258C102.527 50.4336 102.509 50.2232 102.552 50.0208L102.362 32.0208C102.362 30.1708 102.502 28.2808 102.502 26.4308V26.2908C102.502 25.3508 102.362 23.1208 102.362 23.0708L102.222 22.4608C102.295 22.1772 102.406 21.9047 102.552 21.6508C102.832 21.1308 103.352 21.4708 103.832 21.2808H106.012C106.314 21.3822 106.636 21.4129 106.952 21.3708C108.092 21.3708 109.272 21.2808 110.452 21.2808C112.452 21.2808 114.332 21.4208 116.322 21.3708C116.322 21.4208 116.562 21.4708 116.562 21.4708C116.562 21.4708 116.752 21.3708 116.792 21.3708H117.082C117.22 21.3485 117.362 21.3626 117.494 21.4117C117.625 21.4608 117.742 21.5432 117.832 21.6508C117.892 21.6142 117.955 21.5841 118.022 21.5608C118.022 21.5608 118.122 21.5608 118.122 21.6508C118.542 22.8486 118.827 24.0896 118.972 25.3508C118.972 25.5808 119.212 25.6808 119.212 25.9608C119.212 26.4308 118.402 26.5808 118.022 26.6208H117.932L117.792 26.8108C116.702 26.7208 115.612 27.0508 114.622 27.0508C114.432 27.0508 112.722 27.1408 112.062 27.1408C111.402 27.1408 109.062 27.0508 108.892 28.0008C108.892 28.2308 108.842 29.4108 108.802 29.6508C108.802 30.0808 108.802 31.7308 108.802 32.0608H109.942C109.942 32.4908 112.492 32.3508 113.112 32.4008C113.542 32.4008 113.912 32.7708 114.292 32.7708C114.292 32.7708 114.532 32.6808 114.582 32.6808H115.002C115.242 32.6808 115.662 32.5908 115.762 32.9608C115.762 32.9608 115.762 33.1108 115.762 33.1508C115.972 33.7989 116.1 34.4709 116.142 35.1508V35.5308C115.992 35.5308 115.992 35.6208 115.992 35.7208C115.992 35.8208 116.232 35.9008 116.232 36.0908C116.232 36.2808 116.232 36.3308 116.142 36.3808V37.8008C116.142 37.9908 115.522 38.3208 115.282 38.3208H112.962C112.822 38.5108 112.732 38.4108 112.492 38.4108L109.492 38.7908C109.24 38.8084 108.989 38.8418 108.742 38.8908L108.592 39.1708V45.2708C108.574 45.4993 108.527 45.7245 108.452 45.9408V46.0308C108.502 46.0308 108.552 46.1308 108.592 46.1308C110.305 45.9477 112.029 45.8843 113.752 45.9408H116.752C116.892 45.9408 117.412 45.9408 117.462 46.0308H117.602C117.873 46.0488 118.144 46.0822 118.412 46.1308V46.5508L118.592 46.2208C120.592 46.2208 120.592 48.3508 120.592 50.0108V50.2908C119.972 50.2908 120.592 51.0908 119.922 51.0908C119.742 51.0908 119.692 51.0008 119.592 50.7608V51.5208C119.592 51.6608 118.462 51.9008 118.322 51.9008C116.388 51.9581 114.459 52.1149 112.542 52.3708H106.912C106.791 52.4227 106.663 52.4564 106.532 52.4708H104.832C104.122 52.4708 104.262 52.8408 103.512 52.8408C103.272 52.8408 102.612 51.6608 102.612 51.4708C102.64 51.3845 102.688 51.306 102.753 51.2417C102.817 51.1775 102.895 51.1292 102.982 51.1008ZM106.572 14.5308L106.432 14.3908V14.2908C106.485 14.1395 106.515 13.9811 106.522 13.8208C106.591 13.7669 106.674 13.7324 106.762 13.7208L106.862 13.4408L107.052 13.3008C107.274 13.1914 107.515 13.1268 107.762 13.1108H110.222C111.112 13.1108 113.052 15.5708 113.532 16.1808C113.582 16.1808 113.722 17.0308 113.772 17.1808C113.772 17.4608 113.582 18.0808 113.152 18.0808H111.072C110.642 17.9808 110.122 18.0808 109.742 17.8408C109.388 17.6345 109.053 17.3968 108.742 17.1308C108.222 16.5608 107.802 16.0008 107.282 15.4808C107.062 15.3056 106.855 15.1151 106.662 14.9108C106.612 14.9108 106.562 14.7708 106.562 14.7708C106.562 14.7708 106.522 14.5708 106.572 14.5308ZM116.042 47.1308C114.762 47.1308 113.532 47.3208 112.252 47.4108H111.302H111.162C110.412 47.6008 109.552 47.4108 108.802 47.6008L108.422 47.8808H109.692C112.632 47.8808 115.472 47.5508 118.402 47.5508V47.0308C118.402 46.9408 118.732 46.8408 118.732 46.6608V46.5608C118.732 46.6108 118.592 46.6608 118.542 46.7008C118.442 46.7008 118.302 46.4708 118.212 46.4708C117.552 46.4308 116.782 47.0808 116.042 47.1308ZM116.412 36.4308C116.396 36.4252 116.383 36.4149 116.374 36.4015C116.365 36.3881 116.36 36.3722 116.36 36.3558C116.36 36.3395 116.365 36.3236 116.374 36.3102C116.383 36.2968 116.396 36.2865 116.412 36.2808C116.427 36.2865 116.44 36.2968 116.45 36.3102C116.459 36.3236 116.464 36.3395 116.464 36.3558C116.464 36.3722 116.459 36.3881 116.45 36.4015C116.44 36.4149 116.427 36.4252 116.412 36.4308Z" fill="#FCF0D4"/>
<path d="M124.311 41.6908C124.361 41.6408 124.741 40.5508 125.071 40.5508C125.401 40.5508 125.541 40.7908 125.731 40.8408C125.921 40.8908 125.831 40.8408 125.871 40.8408C125.967 40.8206 126.066 40.8206 126.161 40.8408C126.873 40.9749 127.513 41.3621 127.961 41.9308L128.381 42.7808L129.571 44.6708C129.707 44.7509 129.834 44.8448 129.951 44.9508C130.281 45.1908 130.421 47.2708 130.661 47.8908L131.181 48.9808C131.321 49.2608 131.231 49.3508 131.511 49.3508C132.511 49.3508 132.461 48.5508 133.071 48.2208H133.361L133.591 47.9808C134.781 45.7108 134.161 46.3308 134.451 43.8208V43.6808C134.451 42.6808 133.361 41.2208 129.901 39.0908C128.881 38.6939 127.9 38.2017 126.971 37.6208C125.081 36.6208 123.281 35.1108 123.281 32.7908C123.281 29.5808 123.851 23.9008 126.831 22.1008C128.391 21.1008 130.831 21.1008 132.561 21.1008C134.491 21.1008 136.391 22.1008 138.141 22.9908C139.156 23.3698 140.065 23.9872 140.791 24.7908C141.451 25.6408 141.641 27.5308 141.791 28.4308C141.932 28.9412 142.026 29.4634 142.071 29.9908C142.071 31.1308 141.791 31.1808 141.461 31.8908C140.782 32.2875 140.024 32.5299 139.241 32.6008C138.475 32.6018 137.712 32.5043 136.971 32.3108C136.921 32.3108 136.631 32.3108 136.631 32.2208C136.631 32.1308 136.541 32.1208 136.541 32.0808L136.451 32.1708H136.401C136.139 32.0122 135.92 31.7915 135.763 31.5282C135.606 31.2649 135.516 30.967 135.501 30.6608C135.501 30.4208 135.311 28.8108 135.311 28.6608L134.981 27.0508C134.841 26.3408 134.181 24.7808 133.371 24.7808H131.431C131.431 24.7808 131.151 24.7808 131.101 24.8308C131.051 24.8808 130.201 25.4408 130.101 25.5408C129.631 25.8708 128.821 29.6108 129.161 30.7008C129.251 31.2608 129.111 31.6008 129.581 32.0708L129.771 32.2608C130.1 32.6831 130.521 33.0251 131.001 33.2608L136.631 36.6208C140.631 39.0308 141.551 40.6208 141.551 43.3408V43.6708H141.461C141.477 43.8135 141.507 43.9542 141.551 44.0908V44.1908C141.551 44.6608 141.321 44.7508 141.411 45.3208C141.321 45.1808 141.321 45.2308 141.171 45.2308C141.171 46.0308 141.081 46.3608 141.081 46.6508L140.891 47.0708C140.841 47.0708 140.891 47.0708 140.891 47.1708C140.371 48.7482 139.526 50.1993 138.411 51.4308C137.041 52.8508 132.781 53.4308 131.031 53.4308C125.541 53.4308 124.121 49.1308 124.121 44.4908C124.086 43.5534 124.149 42.6149 124.311 41.6908ZM134.681 45.8508V45.7608C134.681 45.7608 134.631 45.8508 134.681 45.8508ZM140.971 46.8508C140.968 46.8252 140.97 46.7991 140.979 46.7747C140.988 46.7503 141.002 46.7284 141.021 46.7108C140.971 46.8008 140.971 46.8908 140.971 46.8408V46.8508ZM141.021 46.6708C141.049 46.3351 141.095 46.0012 141.161 45.6708C141.166 46.0061 141.119 46.34 141.021 46.6608V46.6708Z" fill="#FCF0D4"/>
<path d="M34.3916 65.6008L34.5516 64.9708C34.6416 64.6508 35.0516 64.6308 35.1816 64.4108C35.5996 64.4033 36.0169 64.3732 36.4316 64.3208C36.7897 64.3556 37.1335 64.4794 37.4316 64.6808C37.7716 65.0408 37.6616 65.4708 37.6816 65.9508V66.1508V66.2408C37.5616 67.8208 37.5916 69.4108 37.5616 70.9908C37.5616 70.9908 37.5616 71.1708 37.5616 71.1908C37.5616 71.2108 37.5616 71.7608 37.5116 71.9808V72.0308C37.5116 72.1208 37.5616 72.8908 37.5616 72.9808C37.5616 74.2208 37.6716 75.4708 37.7816 76.7108C37.7917 76.8306 37.7917 76.951 37.7816 77.0708V76.9808H42.0116C42.5316 77.0508 42.6216 77.7708 42.6216 78.1308C42.6216 78.4908 42.6216 78.6108 42.6216 78.8808C42.6216 78.9708 42.4816 79.0808 42.3916 79.0808L42.3016 78.8408H42.2116C42.2116 78.8408 42.2116 79.0808 42.0916 79.0808C41.9116 79.0808 41.8416 79.2408 41.7716 79.2408L41.5416 79.1908C41.3473 79.1934 41.1535 79.2101 40.9616 79.2408C40.3017 79.3713 39.6333 79.4548 38.9616 79.4908H38.8416L38.7816 79.4308C38.4216 79.4308 38.0116 79.5008 37.6516 79.4808C37.1538 79.6823 36.6273 79.8038 36.0916 79.8408H35.9116V79.7908L35.7816 79.8408H35.6416C35.2816 79.8408 35.2316 79.7208 35.1416 79.4808C35.1381 79.4643 35.1381 79.4473 35.1416 79.4308C35.1416 79.4308 35.0716 79.2508 35.0716 79.2308C35.0654 79.191 35.0654 79.1506 35.0716 79.1108L34.4816 69.3208L34.3916 65.6008Z" fill="#FCF0D4"/>
<path d="M43.7109 78.7409C43.7109 78.6109 43.8009 78.4909 43.8009 78.3809C43.8009 78.2709 43.8009 78.1509 43.8009 78.0609C43.8009 77.9709 43.8909 77.8209 43.9609 77.6309C44.2109 75.9409 44.6609 74.4009 45.0509 72.7509C45.1575 72.0879 45.3215 71.4355 45.5409 70.8009C45.5409 70.8009 46.1309 68.7009 46.1309 68.5909C46.4709 67.3509 46.8109 66.0809 47.0609 64.8109L47.2609 64.3809H47.4109C47.6809 64.3809 47.9109 64.4909 48.1809 64.4909H48.3409H48.4109C48.4109 64.4909 48.4109 64.5609 48.4809 64.5609C48.5509 64.5609 48.5909 64.5609 48.6109 64.5609C49.4947 64.5751 50.3379 64.9339 50.9609 65.5609C51.4609 66.0109 51.8009 68.6409 51.9609 69.3409C52.2609 70.5609 52.5509 71.7609 52.8609 72.9609V73.3409C53.0209 73.4109 53.1409 74.6509 53.2009 74.9009L53.2909 74.9709C53.3609 75.1709 53.3609 75.4209 53.4309 75.5809C53.5009 75.7409 53.6109 75.8709 53.6309 75.9209C53.9396 76.5916 54.1679 77.2965 54.3109 78.0209L54.5109 78.2009C54.5109 78.2909 54.4209 78.3109 54.4209 78.3809V78.4409C54.4209 78.4409 54.4909 78.5609 54.5109 78.5609C54.4009 78.7409 54.5109 78.9209 54.4009 78.9209C54.2909 78.9209 54.1809 78.9209 54.1509 78.9209C54.1209 78.9209 54.0609 79.0609 54.0609 79.0609C53.7358 79.1539 53.3992 79.201 53.0609 79.2009H52.4209H52.3309C52.2409 79.2009 51.8109 79.2009 51.7209 79.1309C51.6509 79.0809 51.6309 79.0809 51.6309 79.0109C51.6309 78.9409 51.6309 78.9209 51.7409 78.9209C51.5409 78.7709 51.4509 78.2909 51.3109 78.2009C51.1709 78.1109 51.3109 77.9309 51.3109 77.8609C51.2345 77.6868 51.1743 77.506 51.1309 77.3209C51.0641 77.1588 51.0106 76.9916 50.9709 76.8209C50.8809 76.5709 50.8609 76.0509 50.5909 76.0109C50.4012 75.996 50.2106 75.996 50.0209 76.0109C49.8009 76.0109 49.6109 76.2109 49.4109 76.2809C48.8822 76.4883 48.3266 76.6196 47.7609 76.6709C47.8414 76.6382 47.9252 76.6147 48.0109 76.6009C48.0109 76.6009 48.1909 76.6009 48.2309 76.6009L48.5509 76.4709C48.5509 76.4709 48.5509 76.4709 48.6209 76.4709H48.5509C48.1409 76.4709 47.7409 76.6509 47.3309 76.6509C47.2905 76.6388 47.253 76.6184 47.2209 76.5909C46.9009 76.5909 47.0109 76.7709 46.9209 77.0609C46.9209 77.1309 46.8509 77.1309 46.9209 77.2209L46.6909 78.2209C46.5739 78.3919 46.4954 78.5864 46.4609 78.7909C46.2809 78.8509 46.3709 79.1009 46.1909 79.1909C46.0109 79.2809 45.7209 79.2809 45.5109 79.3809C45.5109 79.3809 45.4009 79.4409 45.4009 79.4709C45.3824 79.4709 45.3646 79.4635 45.3514 79.4504C45.3383 79.4372 45.3309 79.4194 45.3309 79.4009C45.2109 79.4009 44.1709 79.6009 43.7709 78.8809L43.7109 78.7409ZM48.3009 72.2109C48.1322 72.5972 48.0016 72.9991 47.9109 73.4109H48.0709L49.8809 73.2009L49.9309 73.1309C49.9045 73.0532 49.8877 72.9726 49.8809 72.8909C49.7009 72.3209 49.5009 71.7509 49.3409 71.1709C49.2209 70.7409 49.1309 70.2609 48.9809 69.8309C48.7809 70.6209 48.5709 71.4309 48.3009 72.2109ZM53.4109 78.4009C53.4085 78.3733 53.3989 78.3468 53.3831 78.324C53.3673 78.3012 53.3459 78.2829 53.3209 78.2709C53.3209 78.4309 53.3409 78.4309 53.4109 78.4309V78.4009Z" fill="#FCF0D4"/>
</svg>
