<svg width="181" height="266" viewBox="0 0 181 266" fill="none" xmlns="http://www.w3.org/2000/svg">
<path d="M58.8311 1.85046C77.141 -1.17946 97.7507 -0.288786 115.981 3.07116C133.63 6.33112 150.19 14.1408 161.78 28.1405C173.62 42.4304 179.341 60.5407 180.511 78.9305C181.681 97.3204 179.951 118.241 168.041 133.131C156.907 147.033 139.799 156.679 121.81 156.559C121.497 156.534 121.201 156.415 120.959 156.221C120.311 155.821 119.926 155.019 120.44 154.181C123.099 149.833 124.787 144.963 125.39 139.902C125.992 134.842 125.494 129.711 123.931 124.861C120.361 113.941 111.411 106.951 100.631 103.741C78.601 97.1711 55.1409 103.361 32.711 100.871C-0.948907 97.161 -8.51928 49.031 9.48053 25.871C14.8005 19.031 22.1008 14.8606 29.9708 11.5106C39.2708 7.54062 48.8311 3.50045 58.8311 1.85046Z" fill="#075672"/>
<path d="M62.5015 69.351C62.5015 69.211 62.3915 68.351 62.3915 68.251C62.3915 67.821 62.3915 65.801 62.3915 65.361C62.3235 65.2529 62.2856 65.1286 62.2815 65.001C62.2779 64.8448 62.317 64.6906 62.3946 64.5549C62.4721 64.4192 62.5851 64.3073 62.7215 64.231C64.8515 64.341 66.9315 64.011 69.0915 64.011C71.9515 64.011 73.7815 64.701 75.0915 67.231C76.9515 70.851 74.7615 74.441 72.4115 74.661C73.6915 74.921 75.9315 75.721 76.5515 77.731C77.1028 79.2549 77.3508 80.8719 77.2815 82.491C77.1556 83.6061 76.7382 84.6684 76.0715 85.571C75.7997 86.2025 75.3888 86.7643 74.8693 87.2146C74.3497 87.6648 73.7352 87.9918 73.0715 88.171C72.7645 88.3544 72.4249 88.4767 72.0715 88.531V88.431C71.6245 88.5941 71.1563 88.6918 70.6815 88.721C70.5723 88.7407 70.4606 88.7407 70.3515 88.721C70.1315 88.791 70.1315 88.831 69.9515 89.011C69.7012 89.0814 69.4408 89.1084 69.1815 89.091C69.1815 88.941 69.2915 89.011 69.2915 88.871C68.7815 88.871 68.2315 89.161 67.6815 89.161C67.1315 89.161 66.5115 88.871 65.9215 88.871C65.8327 88.8659 65.7447 88.8905 65.6715 88.941C65.1734 89.106 64.6555 89.2036 64.1315 89.231H63.8715C63.5415 88.971 63.6215 88.091 63.2915 87.731C63.2915 87.731 63.2915 87.581 63.2915 87.541L62.5015 69.351ZM67.7815 72.831L69.7815 72.611C71.9715 72.101 71.6815 68.141 68.1715 68.141C67.9515 68.141 67.6515 68.071 67.6515 68.361C67.6615 69.651 67.7815 71.511 67.7815 72.831ZM67.7115 84.831C68.105 84.8137 68.4963 84.7635 68.8815 84.681C69.1415 84.611 70.3815 84.281 70.6015 84.241C70.8215 84.201 70.6015 84.131 70.8215 84.061L71.0115 83.991C71.4947 83.8195 71.9291 83.5334 72.2774 83.1572C72.6257 82.781 72.8776 82.3259 73.0115 81.831C73.1215 81.571 73.6715 78.571 71.0115 77.761C70.8215 77.761 70.5015 77.761 70.3115 77.651C69.7615 77.651 69.4015 77.551 68.9215 77.551C68.4415 77.551 68.1915 77.731 67.7515 77.731L67.7115 84.831Z" fill="#FCF0D4"/>
<path d="M81.4309 88.1709C81.4309 87.9809 81.4309 87.8409 81.5709 87.8009C81.4674 87.701 81.3849 87.5815 81.3282 87.4492C81.2715 87.317 81.2419 87.1748 81.2409 87.0309C81.2409 86.7709 81.1009 86.0309 81.1009 86.0309V76.2309C81.1009 76.0109 81.1009 75.1409 81.1009 74.9909C81.1009 74.0709 80.9509 73.1609 80.9509 72.2809V72.1309C80.9732 72.0463 80.9999 71.9628 81.0309 71.8809C81.0309 71.8809 80.9509 71.5909 80.9509 71.5509C80.9127 71.259 80.8893 70.9653 80.8809 70.6709C80.8892 70.6061 80.9132 70.5443 80.9509 70.4909V70.3409C80.9225 70.2557 80.8991 70.1689 80.8809 70.0809C80.8589 69.8515 80.8589 69.6204 80.8809 69.3909C80.8509 68.9014 80.8509 68.4105 80.8809 67.9209C80.7169 67.3526 80.6427 66.7622 80.6609 66.1709C80.6609 66.0209 80.6609 65.9109 80.6609 65.8009C80.6609 65.6909 80.6609 65.6509 80.6609 65.5509C80.7138 65.3546 80.822 65.1776 80.9728 65.041C81.1235 64.9045 81.3103 64.8142 81.5109 64.7809C81.7609 64.7809 82.9709 64.7009 83.2609 64.7009H83.7709C84.3423 64.7154 84.9098 64.7994 85.4609 64.9509C85.5309 64.9509 85.5309 64.9509 85.6009 64.9509C85.8609 65.0609 85.9009 65.5409 85.9009 65.8309C85.9009 66.1209 85.7509 65.8309 85.6409 66.0109L85.5009 66.3809C85.5009 66.4909 85.9009 67.0409 85.9009 67.4409C85.876 67.8106 85.8259 68.1781 85.7509 68.5409V71.2509C85.7509 72.7909 85.8609 74.3309 85.8609 75.8609V76.7109C85.6009 76.9609 85.7209 77.5509 85.7209 77.8809C85.7209 78.2109 85.7209 78.3509 85.7209 78.6109V78.6809C85.7209 78.8309 85.7209 79.8509 85.7209 80.0009V84.5409C85.5977 84.8426 85.5332 85.1651 85.5309 85.4909C85.5309 85.8909 85.6009 86.1509 85.6009 86.5509V86.8809C85.3909 86.9609 85.5009 87.8009 85.3109 87.8809H85.0909C85.0909 87.8809 85.0909 88.0609 85.0909 88.1009C85.0909 88.1409 84.4709 88.3909 84.2809 88.5009C83.5366 88.8593 82.7264 89.0602 81.9009 89.0909C81.6109 89.0909 81.8009 88.6809 81.6109 88.5409C81.6109 88.5409 81.6109 88.5409 81.5409 88.5409L81.4709 88.4709L81.4309 88.1709Z" fill="#FCF0D4"/>
<path d="M89.7812 87.431C89.6508 87.3382 89.5509 87.209 89.494 87.0595C89.437 86.91 89.4256 86.747 89.4612 86.591L89.3112 72.591C89.3112 71.171 89.4212 69.701 89.4212 68.271V68.161C89.4212 67.431 89.3112 65.711 89.3112 65.681L89.2012 65.201C89.2012 65.201 89.3812 64.721 89.4612 64.581C89.6712 64.171 90.0812 64.431 90.4612 64.281H92.1512C92.3487 64.3734 92.5631 64.4245 92.7812 64.431C93.6612 64.431 94.5712 64.351 95.4912 64.351C97.0312 64.351 98.4912 64.461 100.031 64.431L100.211 64.501C100.211 64.501 100.361 64.431 100.391 64.431H100.611C100.72 64.4137 100.832 64.4249 100.935 64.4634C101.038 64.502 101.13 64.5666 101.201 64.651C101.244 64.6176 101.291 64.5907 101.341 64.571C101.341 64.571 101.421 64.571 101.421 64.651C101.745 65.5741 101.966 66.5298 102.081 67.501C102.081 67.681 102.261 67.761 102.261 67.981C102.261 68.201 101.641 68.451 101.341 68.491H101.271L101.161 68.641C100.342 68.6586 99.5242 68.7187 98.7112 68.821C98.5612 68.821 97.2412 68.891 96.7112 68.891C96.1812 68.891 94.4112 68.821 94.2612 69.551C94.2612 69.731 94.2612 70.651 94.1912 70.831C94.1212 71.011 94.1912 72.441 94.1912 72.701H95.0712C95.0712 73.031 97.0712 72.921 97.5212 72.961C97.9712 73.001 98.1512 73.251 98.4412 73.251C98.4412 73.251 98.6212 73.181 98.6612 73.181H98.9912C99.1712 73.181 99.5012 73.101 99.5712 73.401C99.5712 73.401 99.5712 73.511 99.5712 73.541C99.7365 74.0527 99.834 74.5839 99.8612 75.121V75.431C99.7512 75.431 99.7512 75.501 99.7512 75.571C99.7512 75.641 99.9412 75.721 99.9412 75.871C99.9412 76.021 99.9412 76.051 99.8612 76.091V77.191C99.8612 77.331 99.3912 77.591 99.2112 77.591H97.4112C97.3012 77.731 97.2312 77.661 97.0512 77.661L94.7412 77.951C94.5463 77.9648 94.3525 77.9915 94.1612 78.031L94.0512 78.251V82.971C94.0332 83.1445 93.9963 83.3155 93.9412 83.481V83.561C93.9412 83.561 94.0112 83.631 94.0512 83.631C95.3792 83.4859 96.716 83.4358 98.0512 83.481H100.361C100.471 83.481 100.871 83.481 100.911 83.561H101.021C101.229 83.5738 101.436 83.5972 101.641 83.631V83.961L101.791 83.701C103.371 83.701 103.371 85.351 103.371 86.631V86.851C102.891 86.851 103.371 87.471 102.861 87.471C102.711 87.471 102.671 87.401 102.601 87.221V87.801C102.601 87.911 101.721 88.091 101.601 88.091C100.101 88.091 98.6012 88.281 97.1312 88.461H92.7812C92.6886 88.4987 92.5908 88.5223 92.4912 88.531H91.1712C90.6212 88.531 90.7312 88.831 90.1712 88.831C89.9912 88.831 89.4812 87.911 89.4812 87.771C89.4984 87.6936 89.535 87.6219 89.5875 87.5624C89.6399 87.503 89.7066 87.4578 89.7812 87.431ZM92.5712 59.141L92.4612 59.031V58.951C92.4988 58.8343 92.5224 58.7134 92.5312 58.591C92.5836 58.5498 92.6454 58.5223 92.7112 58.511L92.7912 58.291C92.8418 58.2597 92.8888 58.2228 92.9312 58.181C93.1046 58.1017 93.2909 58.0543 93.4812 58.041H95.3912C96.0812 58.041 97.5812 59.941 97.9512 60.421C97.9512 60.421 98.0912 61.081 98.1312 61.151C98.1712 61.221 97.9812 61.841 97.6512 61.841H96.0412C95.7112 61.771 95.3112 61.841 95.0412 61.661C94.7547 61.5032 94.4836 61.319 94.2312 61.111C93.8312 60.671 93.5012 60.231 93.1012 59.831C92.9305 59.6964 92.7701 59.5494 92.6212 59.391C92.6212 59.391 92.5512 59.281 92.5512 59.281C92.5512 59.281 92.4812 59.211 92.5212 59.181L92.5712 59.141ZM99.8412 84.431C98.8412 84.431 97.9012 84.571 96.9112 84.651H96.1812H96.0712C95.4812 84.801 94.8212 84.651 94.2412 84.801L93.9412 85.021H94.9412C97.2112 85.021 99.4112 84.761 101.681 84.761V84.321C101.681 84.251 101.931 84.181 101.931 84.031V83.961C101.931 83.961 101.821 84.031 101.791 84.071C101.721 84.071 101.611 83.881 101.531 83.881C101.011 83.881 100.421 84.361 99.8412 84.431ZM100.131 76.151C100.12 76.1463 100.111 76.1387 100.105 76.1289C100.099 76.1191 100.095 76.1077 100.095 76.096C100.095 76.0843 100.099 76.0729 100.105 76.0631C100.111 76.0534 100.12 76.0457 100.131 76.041C100.141 76.052 100.146 76.0663 100.146 76.081C100.146 76.0958 100.141 76.11 100.131 76.121V76.151Z" fill="#FCF0D4"/>
<path d="M118.651 89.4309H118.581C118.431 89.2809 118.251 89.3209 118.211 89.2409C117.837 88.467 117.384 87.7333 116.861 87.0509C116.711 86.7909 115.981 85.3609 115.861 85.1109C115.702 84.5878 115.44 84.1017 115.091 83.6809C115.021 83.5309 114.871 83.4909 114.761 83.4209C114.511 82.9509 114.211 82.5109 113.991 82.0709C113.991 81.9209 113.881 81.9909 113.811 81.9209C113.741 81.8509 113.591 80.7109 113.151 80.7109C113.111 80.7088 113.071 80.7148 113.033 80.7285C112.995 80.7423 112.961 80.7635 112.931 80.7909C112.931 80.6409 112.821 80.3809 112.671 80.3809C112.617 80.3998 112.567 80.4267 112.521 80.4609C112.487 80.2392 112.386 80.0334 112.231 79.8709C112.151 79.8709 112.011 79.8709 111.971 79.9409C112.121 81.5609 111.971 83.1309 112.151 84.8109L112.411 87.9209C112.411 88.1809 112.191 88.2909 111.971 88.4409C111.867 88.5757 111.746 88.6967 111.611 88.8009C110.711 89.1088 109.772 89.284 108.821 89.3209H108.311C108.311 89.1709 108.021 89.2409 108.021 89.2409C107.761 89.2409 108.021 88.8009 107.911 88.6909C107.823 88.6725 107.745 88.6227 107.691 88.5509C107.683 88.5248 107.683 88.497 107.691 88.4709C107.691 88.4009 107.771 88.2909 107.771 88.1809C107.771 88.0709 107.441 87.5609 107.441 87.1809L106.781 65.4309C106.781 65.2109 107.071 64.7009 107.041 64.6209C107.011 64.5409 107.371 64.5509 107.441 64.5509C107.511 64.5509 107.441 64.4809 107.511 64.4809C107.621 64.4809 107.771 64.5509 107.951 64.5509C108.131 64.5509 108.571 64.3709 108.861 64.3709H108.971C109.971 64.3709 111.101 64.1509 111.901 64.1509H112.521C112.821 64.1509 113.991 64.3309 114.391 64.3709H114.471C115.964 64.8092 117.429 65.3334 118.861 65.9409C119.793 66.5452 120.557 67.3756 121.082 68.3548C121.606 69.334 121.875 70.4301 121.861 71.5409C121.861 72.0909 121.981 73.5409 121.501 73.8909L121.321 74.7609C121.162 75.265 120.965 75.7565 120.731 76.2309C120.731 76.2309 120.581 76.3709 120.551 76.4109C120.331 76.4809 120.141 76.8909 120.071 77.1109L118.831 78.3509C118.197 78.6175 117.593 78.9528 117.031 79.3509V79.4309C117.28 79.7121 117.501 80.0169 117.691 80.3409H117.771C117.771 80.7809 118.241 80.9309 118.391 81.3409C118.391 81.5209 118.611 81.4809 118.721 81.6609C118.9 82.0981 119.121 82.5168 119.381 82.9109C119.601 83.2409 120.001 83.4209 120.071 83.8609C120.071 83.8609 120.071 83.8609 120.141 83.8609C120.441 83.9309 120.731 84.6709 120.801 84.9209C120.942 85.1321 121.118 85.3181 121.321 85.4709C121.941 86.2809 122.161 86.9709 123.221 87.3009C123.243 87.3094 123.262 87.3246 123.274 87.3444C123.287 87.3642 123.293 87.3875 123.291 87.4109C123.291 87.5209 123.151 87.6009 123.151 87.6709H123.221C123.221 87.6709 123.371 87.7409 123.401 87.7409V87.8509C123.353 87.9428 123.316 88.0402 123.291 88.1409V88.2509C123.277 88.3672 123.24 88.4795 123.181 88.5809L122.961 88.6909V88.8409C122.961 88.9509 122.591 89.0309 122.591 89.0309L122.441 89.1709C121.917 89.4158 121.337 89.5159 120.761 89.4609C120.023 89.4058 119.289 89.309 118.561 89.1709C118.561 89.1709 118.651 89.3409 118.651 89.4309ZM111.951 77.0509C111.951 77.0509 112.251 76.9809 112.251 76.9409L112.321 76.8709C113.011 77.2009 115.211 75.5209 115.501 75.2209C116.501 74.4909 116.751 71.4509 116.751 70.6109C116.751 67.9009 114.521 67.6109 111.881 67.7909C111.621 67.9709 111.881 67.8709 111.661 68.1209L111.591 68.0509V75.0509C111.661 75.6819 111.697 76.3161 111.701 76.9509C111.781 76.9832 111.866 77.0001 111.951 77.0009V77.0509ZM123.631 88.2209V88.2909L123.561 88.2209H123.631Z" fill="#FCF0D4"/>
<path d="M126.411 87.431C126.28 87.3386 126.179 87.2098 126.12 87.0605C126.062 86.9112 126.048 86.748 126.081 86.591L125.931 72.591C125.931 71.171 126.041 69.701 126.041 68.271V68.161C126.041 67.431 125.931 65.711 125.931 65.681L125.821 65.201C125.882 64.9845 125.97 64.7763 126.081 64.581C126.301 64.171 126.701 64.431 127.081 64.281H128.781C129.015 64.3632 129.265 64.3906 129.511 64.361C130.391 64.361 131.311 64.281 132.221 64.281C133.761 64.281 135.221 64.391 136.761 64.361L136.951 64.431C136.951 64.431 137.091 64.361 137.131 64.361H137.351C137.459 64.3445 137.569 64.3561 137.67 64.3947C137.772 64.4332 137.862 64.4974 137.931 64.581C137.977 64.5469 138.028 64.5199 138.081 64.501C138.081 64.501 138.151 64.501 138.151 64.581C138.484 65.5013 138.706 66.4581 138.811 67.431C138.811 67.611 138.991 67.691 138.991 67.911C138.991 68.131 138.371 68.381 138.081 68.421H138.011L137.901 68.571C137.079 68.5882 136.258 68.6483 135.441 68.751C135.301 68.751 133.981 68.821 133.441 68.821C132.901 68.821 131.131 68.751 130.981 69.481C130.981 69.661 130.981 70.581 130.911 70.761C130.841 70.941 130.911 72.371 130.911 72.631H131.791C131.791 72.961 133.791 72.851 134.241 72.891C134.691 72.931 134.861 73.181 135.151 73.181C135.151 73.181 135.341 73.111 135.371 73.111H135.781C135.971 73.111 136.301 73.031 136.371 73.331C136.371 73.331 136.371 73.441 136.371 73.471C136.532 73.9839 136.629 74.5145 136.661 75.051V75.431C136.551 75.431 136.551 75.501 136.551 75.571C136.551 75.641 136.731 75.721 136.731 75.871C136.731 76.021 136.731 76.051 136.661 76.091V77.191C136.661 77.331 136.181 77.591 136.001 77.591H134.211C134.101 77.731 134.021 77.661 133.841 77.661L131.531 77.951C131.333 77.9642 131.136 77.991 130.941 78.031L130.831 78.251V82.971C130.818 83.1452 130.781 83.3168 130.721 83.481V83.561C130.721 83.561 130.801 83.631 130.831 83.631C132.159 83.4856 133.496 83.4355 134.831 83.481H137.131C137.241 83.481 137.651 83.481 137.681 83.561H137.781C137.992 83.5733 138.203 83.5967 138.411 83.631V83.961L138.551 83.701C140.121 83.701 140.121 85.351 140.121 86.631V86.851C139.651 86.851 140.121 87.471 139.611 87.471C139.461 87.471 139.431 87.401 139.351 87.221V87.801C139.351 87.911 138.471 88.091 138.351 88.091C136.851 88.091 135.351 88.281 133.881 88.461H129.521C129.429 88.4998 129.331 88.5234 129.231 88.531H127.981C127.431 88.531 127.541 88.831 126.981 88.831C126.791 88.831 126.281 87.911 126.281 87.771C126.278 87.645 126.325 87.5229 126.411 87.431ZM136.511 84.361C135.511 84.361 134.571 84.501 133.581 84.581H132.851H132.741C132.161 84.731 131.501 84.581 130.911 84.731L130.621 84.951H131.621C133.891 84.951 136.081 84.691 138.351 84.691V84.251C138.351 84.181 138.611 84.111 138.611 83.961V83.891C138.611 83.891 138.501 83.961 138.461 84.001C138.381 84.001 138.271 83.811 138.201 83.811C137.681 83.881 137.101 84.361 136.511 84.431V84.361ZM136.801 76.081C136.791 76.0763 136.781 76.0687 136.775 76.0589C136.769 76.0491 136.765 76.0377 136.765 76.026C136.765 76.0143 136.769 76.0029 136.775 75.9931C136.781 75.9834 136.791 75.9757 136.801 75.971C136.811 75.9723 136.821 75.9756 136.829 75.9805C136.838 75.9855 136.845 75.9922 136.851 76C136.857 76.0079 136.862 76.0169 136.864 76.0265C136.867 76.0361 136.868 76.0462 136.866 76.056C136.865 76.0659 136.862 76.0753 136.857 76.0839C136.852 76.0925 136.845 76.1001 136.837 76.1061C136.829 76.1121 136.82 76.1166 136.811 76.1191C136.801 76.1217 136.791 76.1223 136.781 76.121L136.801 76.081Z" fill="#FCF0D4"/>
<path d="M31.8711 51.3409C31.8711 51.0609 32.0611 50.8209 32.0611 50.5809C32.0611 50.3409 31.9611 50.1109 31.9611 49.9209C31.9611 49.5409 32.1511 49.4009 32.2911 49.0209C32.7811 45.4309 33.7811 42.2609 34.5611 38.8009C34.7862 37.4199 35.1206 36.059 35.5611 34.7309C35.6111 34.7309 36.8011 30.3309 36.8011 30.0909C37.5011 27.4909 38.2111 24.8409 38.7311 22.1909L39.1611 21.2909V21.2009H39.4911C40.0611 21.2009 40.4911 21.4409 41.1011 21.4409C41.2411 21.4409 41.2911 21.4409 41.4311 21.4409H41.5711C41.5711 21.4409 41.6711 21.5809 41.7111 21.5809C41.7511 21.5809 41.9511 21.5809 42.0011 21.5809C43.8474 21.6167 45.609 22.3615 46.9211 23.6609C47.9211 24.6609 48.6711 30.1009 49.0511 31.5609C49.6611 34.1209 50.2811 36.6309 50.9411 39.1309V39.9409C51.2711 40.0809 51.5111 42.6809 51.6511 43.2009L51.8411 43.3509C51.9811 43.7709 51.9811 44.2909 52.1211 44.6209C52.251 44.8655 52.3946 45.1025 52.5511 45.3309C53.1811 46.7423 53.6572 48.2175 53.9711 49.7309V49.8309L54.4011 50.2109L54.5011 50.3009V50.3509C54.5011 50.5409 54.3111 50.5909 54.3111 50.7309V50.8709C54.3111 50.8709 54.4511 51.1109 54.5011 51.1109V51.2009C54.2611 51.5809 54.4011 51.9609 54.2611 51.9609C54.0883 51.9809 53.9139 51.9809 53.7411 51.9609C53.6873 52.0604 53.6236 52.1542 53.5511 52.2409C52.8767 52.4436 52.1752 52.5414 51.4711 52.5309H50.1411H49.9511C49.5596 52.5184 49.169 52.4851 48.7811 52.4309C48.6411 52.3409 48.5911 52.3409 48.5911 52.2009C48.5911 52.0609 48.5911 52.0109 48.8311 52.0109C48.4011 51.6809 48.2111 50.6809 47.9311 50.4909C47.9311 50.4909 47.9311 49.9309 47.9311 49.7809C47.7715 49.4161 47.6443 49.038 47.5511 48.6509C47.4243 48.3234 47.3142 47.9896 47.2211 47.6509C47.0311 47.1309 46.9811 46.0409 46.4211 45.9409C46.0262 45.8911 45.629 45.861 45.2311 45.8509C44.7611 45.8509 44.3811 46.2809 43.9511 46.4209C42.8444 46.8483 41.683 47.1176 40.5011 47.2209V47.1309C40.6683 47.0618 40.8427 47.0115 41.0211 46.9809C41.1805 46.9609 41.3417 46.9609 41.5011 46.9809C41.5011 46.9809 42.0611 46.7509 42.1611 46.7009C42.2611 46.6509 42.2511 46.6109 42.3011 46.6109H42.1611C41.3111 46.6109 40.4511 46.9809 39.6011 46.9809C39.5112 46.9537 39.429 46.9057 39.3611 46.8409C38.7011 46.8409 38.9311 47.2209 38.7411 47.8409C38.7411 47.9809 38.6011 47.9809 38.6511 48.1709L38.1711 50.1709C37.9234 50.5253 37.7624 50.9329 37.7011 51.3609C37.3211 51.5009 37.5111 52.0209 37.1311 52.2109C36.7511 52.4009 36.1311 52.4009 35.7111 52.5909C35.7111 52.5909 35.4811 52.7309 35.4811 52.7709H35.3811C35.3627 52.7709 35.3445 52.7673 35.3275 52.7603C35.3105 52.7532 35.2951 52.7429 35.2821 52.7299C35.2691 52.7169 35.2588 52.7015 35.2518 52.6845C35.2447 52.6675 35.2411 52.6493 35.2411 52.6309C35.0011 52.6309 32.8311 53.0609 31.9811 51.5409L31.8711 51.3409ZM41.4711 37.6709C41.1267 38.4774 40.8589 39.3144 40.6711 40.1709H41.0011L44.7811 39.7509L44.8811 39.6109C44.8293 39.4383 44.7957 39.2606 44.7811 39.0809C44.4111 37.9009 43.9811 36.7209 43.6511 35.4909C43.4111 34.5909 43.2211 33.6009 42.8911 32.7009C42.4211 34.3509 42.0411 36.0609 41.4711 37.6709ZM52.1711 50.6709C52.1688 50.6112 52.1497 50.5532 52.1161 50.5038C52.0826 50.4543 52.0358 50.4152 51.9811 50.3909C51.9811 50.5809 52.0211 50.6309 52.1711 50.6309V50.6709Z" fill="#FCF0D4"/>
<path d="M57.3711 37.671V33.671C57.3711 32.251 57.5111 25.671 57.5611 24.251L57.7911 21.701C57.777 21.4686 57.8536 21.2398 58.0046 21.0627C58.1556 20.8856 58.3694 20.7738 58.6011 20.751L59.1211 20.851H59.3111C59.9711 20.851 60.6811 20.751 61.3911 20.751H61.7211L63.5211 21.081C64.9911 21.461 67.9211 21.421 69.3911 22.081C69.5811 22.081 71.3311 22.841 71.5611 22.981C72.7919 23.4262 73.8541 24.2425 74.6011 25.3173C75.348 26.392 75.7429 27.6722 75.7311 28.981V29.831C75.6304 30.1046 75.5665 30.3905 75.5411 30.681L75.3011 31.771C75.2798 31.8508 75.2496 31.9279 75.2111 32.001V32.861C75.1611 33.281 74.9211 33.661 74.8711 33.991C74.8414 34.6488 74.7305 35.3004 74.5411 35.931C74.3511 36.311 74.1711 36.641 74.0211 37.021C73.8782 37.7723 73.6878 38.5138 73.4511 39.241C73.3081 39.4984 73.1334 39.7369 72.9311 39.951V40.191C72.8411 40.621 72.4111 40.661 72.1311 40.951C72.1311 40.951 72.0411 41.041 72.0411 41.091L71.6111 41.701C71.1369 41.9058 70.6448 42.0665 70.1411 42.181C69.8111 42.271 68.3011 42.561 67.9711 42.601C67.6411 42.641 64.3711 43.031 63.9011 43.031V44.261C63.9011 44.591 63.8511 47.481 63.8511 47.811C63.8511 48.941 63.9911 51.221 63.3811 52.161C63.1411 52.451 63.1911 52.301 62.8611 52.301C62.5311 52.301 62.7111 52.591 62.5211 52.631C61.5775 53.15 60.527 53.4443 59.4511 53.491C58.7911 53.491 58.2211 53.681 57.9311 52.921C57.9311 52.731 57.5611 51.781 57.5611 51.591C57.4611 46.751 57.3711 42.491 57.3711 37.671ZM64.0911 39.321H64.2711C69.2711 39.321 69.3411 32.081 69.2711 28.441C69.2711 26.691 67.7611 26.591 65.9111 26.071C65.6711 25.981 64.4911 25.601 64.2511 25.551H64.1111C64.0211 25.551 63.8811 25.551 63.8811 25.741V25.791C63.8811 25.791 63.8811 26.081 63.9711 26.121C64.1111 26.931 63.8811 28.721 63.8811 35.921C63.8797 37.0576 63.9498 38.1932 64.0911 39.321Z" fill="#FCF0D4"/>
<path d="M94.1313 53.5609H94.0312C93.8512 53.3709 93.6112 53.4209 93.5612 53.3309C93.0705 52.3237 92.4738 51.3717 91.7812 50.4909C91.5913 50.1609 90.6513 48.3109 90.5013 47.9809C90.2939 47.3071 89.9539 46.6815 89.5013 46.1409C89.4013 45.9509 89.2212 45.9009 89.0712 45.8009C88.7412 45.1909 88.3612 44.6209 88.0712 44.0509C88.0212 43.8609 87.9313 43.9609 87.8313 43.8609C87.6913 43.5809 87.5512 42.3009 86.9812 42.3009C86.9303 42.2979 86.8792 42.3052 86.8311 42.3224C86.783 42.3396 86.7388 42.3663 86.7012 42.4009C86.7512 42.2109 86.5612 41.8809 86.3712 41.8809C86.303 41.8993 86.2387 41.9298 86.1812 41.9709C86.1357 41.6845 86.0031 41.4192 85.8013 41.2109C85.7113 41.2109 85.5213 41.2109 85.4713 41.3109C85.6613 43.3909 85.5212 45.4309 85.7112 47.6009L86.0412 51.6009C86.0412 51.9309 85.7613 52.0809 85.4713 52.2709C85.3353 52.447 85.1773 52.6049 85.0013 52.7409C83.839 53.1318 82.6266 53.3541 81.4012 53.4009H80.7812C80.7812 53.2109 80.4012 53.3109 80.4012 53.3109C80.0712 53.2609 80.4012 52.7409 80.2612 52.6009C80.1212 52.4609 79.9713 52.4609 79.9713 52.4109C79.9623 52.3782 79.9623 52.3437 79.9713 52.3109C79.9713 52.2209 80.0612 52.0809 80.0612 51.9309C80.0612 51.7809 79.6413 51.1309 79.6413 50.7109L78.7812 22.6709V22.5709C78.7812 22.2909 79.1613 21.5709 79.1113 21.5709C79.0613 21.5709 79.5413 21.4809 79.6313 21.4809C79.7213 21.4809 79.6312 21.3809 79.7312 21.3809C79.8712 21.3809 80.0613 21.4809 80.3013 21.4809C80.5413 21.4809 81.1112 21.2409 81.4812 21.2409H81.6212C82.8612 21.2409 84.3713 20.9509 85.4113 20.9509H86.2112C86.5912 20.9509 88.1113 21.1909 88.6313 21.2409H88.7812C90.7116 21.7973 92.6081 22.4651 94.4612 23.2409C96.9712 24.5709 98.3913 27.8309 98.3913 30.4809C98.3913 31.1909 98.5312 33.1309 97.9212 33.4809L97.6812 34.6209C97.48 35.2707 97.2259 35.9028 96.9212 36.5109L96.6812 36.7509C96.4012 36.8409 96.1612 37.3609 96.0712 37.6509L94.4612 39.2509C93.6457 39.5758 92.8678 39.9882 92.1413 40.4809V40.6709C92.4628 41.0388 92.7475 41.4374 92.9913 41.8609H93.0912C93.0912 42.4209 93.7013 42.6109 93.8913 43.0909C93.8913 43.3209 94.1812 43.2809 94.3212 43.5109C94.5575 44.0712 94.8419 44.6099 95.1712 45.1209C95.4512 45.5509 95.9812 45.7809 96.0712 46.3509C96.0712 46.3509 96.1213 46.3509 96.1613 46.3509C96.5413 46.4509 96.9213 47.3509 97.0213 47.7209C97.1213 48.0909 97.4912 48.2409 97.6812 48.4309C98.4812 49.4309 98.7713 50.3709 100.141 50.8009C100.231 50.8009 100.231 50.8909 100.231 50.9409C100.231 50.9909 100.041 51.1809 100.041 51.2709H100.141C100.141 51.2709 100.331 51.3709 100.381 51.3709V51.5109C100.31 51.6281 100.259 51.7566 100.231 51.8909L100.281 52.0409C100.267 52.1896 100.219 52.3331 100.141 52.4609L99.8513 52.6009C99.8513 52.6009 99.8512 52.7909 99.9012 52.7909C99.9012 52.9309 99.4312 53.0309 99.4312 53.0309L99.2413 53.2209C98.5624 53.5426 97.8089 53.6739 97.0612 53.6009C96.1088 53.5221 95.1609 53.3953 94.2213 53.2209C94.2213 53.2209 94.1313 53.5209 94.1313 53.5609ZM85.4713 37.5609C85.5213 37.5609 85.8513 37.4709 85.8513 37.4209L85.9413 37.3209C86.8413 37.7509 89.6812 35.5709 90.0612 35.1909C91.3912 34.2509 91.6712 30.3209 91.6712 29.1909C91.6712 25.6909 88.7813 25.2709 85.3813 25.5509C85.0413 25.7909 85.3812 25.6409 85.0912 25.9809L85.0013 25.8809V34.8809C85.09 35.698 85.1367 36.5191 85.1413 37.3409C85.2334 37.4405 85.3459 37.519 85.4713 37.5709V37.5609ZM100.571 51.9909V52.0909L100.471 51.9909H100.571Z" fill="#FCF0D4"/>
<path d="M102.982 51.1008C102.812 50.9832 102.68 50.8179 102.604 50.6258C102.527 50.4336 102.509 50.2232 102.552 50.0208L102.362 32.0208C102.362 30.1708 102.502 28.2808 102.502 26.4308V26.2908C102.502 25.3508 102.362 23.1208 102.362 23.0708L102.222 22.4608C102.295 22.1772 102.406 21.9047 102.552 21.6508C102.832 21.1308 103.352 21.4708 103.832 21.2808H106.012C106.314 21.3822 106.636 21.4129 106.952 21.3708C108.092 21.3708 109.272 21.2808 110.452 21.2808C112.452 21.2808 114.332 21.4208 116.322 21.3708C116.322 21.4208 116.562 21.4708 116.562 21.4708C116.562 21.4708 116.752 21.3708 116.792 21.3708H117.082C117.22 21.3485 117.362 21.3626 117.494 21.4117C117.625 21.4608 117.742 21.5432 117.832 21.6508C117.892 21.6142 117.955 21.5841 118.022 21.5608C118.022 21.5608 118.122 21.5608 118.122 21.6508C118.542 22.8486 118.827 24.0896 118.972 25.3508C118.972 25.5808 119.212 25.6808 119.212 25.9608C119.212 26.4308 118.402 26.5808 118.022 26.6208H117.932L117.792 26.8108C116.702 26.7208 115.612 27.0508 114.622 27.0508C114.432 27.0508 112.722 27.1408 112.062 27.1408C111.402 27.1408 109.062 27.0508 108.892 28.0008C108.892 28.2308 108.842 29.4108 108.802 29.6508C108.802 30.0808 108.802 31.7308 108.802 32.0608H109.942C109.942 32.4908 112.492 32.3508 113.112 32.4008C113.542 32.4008 113.912 32.7708 114.292 32.7708C114.292 32.7708 114.532 32.6808 114.582 32.6808H115.002C115.242 32.6808 115.662 32.5908 115.762 32.9608C115.762 32.9608 115.762 33.1108 115.762 33.1508C115.972 33.7989 116.1 34.4709 116.142 35.1508V35.5308C115.992 35.5308 115.992 35.6208 115.992 35.7208C115.992 35.8208 116.232 35.9008 116.232 36.0908C116.232 36.2808 116.232 36.3308 116.142 36.3808V37.8008C116.142 37.9908 115.522 38.3208 115.282 38.3208H112.962C112.822 38.5108 112.732 38.4108 112.492 38.4108L109.492 38.7908C109.24 38.8084 108.989 38.8418 108.742 38.8908L108.592 39.1708V45.2708C108.574 45.4993 108.527 45.7245 108.452 45.9408V46.0308C108.502 46.0308 108.552 46.1308 108.592 46.1308C110.305 45.9477 112.029 45.8843 113.752 45.9408H116.752C116.892 45.9408 117.412 45.9408 117.462 46.0308H117.602C117.873 46.0488 118.144 46.0822 118.412 46.1308V46.5508L118.592 46.2208C120.592 46.2208 120.592 48.3508 120.592 50.0108V50.2908C119.972 50.2908 120.592 51.0908 119.922 51.0908C119.742 51.0908 119.692 51.0008 119.592 50.7608V51.5208C119.592 51.6608 118.462 51.9008 118.322 51.9008C116.388 51.9581 114.459 52.1149 112.542 52.3708H106.912C106.791 52.4227 106.663 52.4564 106.532 52.4708H104.832C104.122 52.4708 104.262 52.8408 103.512 52.8408C103.272 52.8408 102.612 51.6608 102.612 51.4708C102.64 51.3845 102.688 51.306 102.753 51.2417C102.817 51.1775 102.895 51.1292 102.982 51.1008ZM106.572 14.5308L106.432 14.3908V14.2908C106.485 14.1395 106.515 13.9811 106.522 13.8208C106.591 13.7669 106.674 13.7324 106.762 13.7208L106.862 13.4408L107.052 13.3008C107.274 13.1914 107.515 13.1268 107.762 13.1108H110.222C111.112 13.1108 113.052 15.5708 113.532 16.1808C113.582 16.1808 113.722 17.0308 113.772 17.1808C113.772 17.4608 113.582 18.0808 113.152 18.0808H111.072C110.642 17.9808 110.122 18.0808 109.742 17.8408C109.388 17.6345 109.053 17.3968 108.742 17.1308C108.222 16.5608 107.802 16.0008 107.282 15.4808C107.062 15.3056 106.855 15.1151 106.662 14.9108C106.612 14.9108 106.562 14.7708 106.562 14.7708C106.562 14.7708 106.522 14.5708 106.572 14.5308ZM116.042 47.1308C114.762 47.1308 113.532 47.3208 112.252 47.4108H111.302H111.162C110.412 47.6008 109.552 47.4108 108.802 47.6008L108.422 47.8808H109.692C112.632 47.8808 115.472 47.5508 118.402 47.5508V47.0308C118.402 46.9408 118.732 46.8408 118.732 46.6608V46.5608C118.732 46.6108 118.592 46.6608 118.542 46.7008C118.442 46.7008 118.302 46.4708 118.212 46.4708C117.552 46.4308 116.782 47.0808 116.042 47.1308ZM116.412 36.4308C116.396 36.4252 116.383 36.4149 116.374 36.4015C116.365 36.3881 116.36 36.3722 116.36 36.3558C116.36 36.3395 116.365 36.3236 116.374 36.3102C116.383 36.2968 116.396 36.2865 116.412 36.2808C116.427 36.2865 116.44 36.2968 116.45 36.3102C116.459 36.3236 116.464 36.3395 116.464 36.3558C116.464 36.3722 116.459 36.3881 116.45 36.4015C116.44 36.4149 116.427 36.4252 116.412 36.4308Z" fill="#FCF0D4"/>
<path d="M124.311 41.6908C124.361 41.6408 124.741 40.5508 125.071 40.5508C125.401 40.5508 125.541 40.7908 125.731 40.8408C125.921 40.8908 125.831 40.8408 125.871 40.8408C125.967 40.8206 126.066 40.8206 126.161 40.8408C126.873 40.9749 127.513 41.3621 127.961 41.9308L128.381 42.7808L129.571 44.6708C129.707 44.7509 129.834 44.8448 129.951 44.9508C130.281 45.1908 130.421 47.2708 130.661 47.8908L131.181 48.9808C131.321 49.2608 131.231 49.3508 131.511 49.3508C132.511 49.3508 132.461 48.5508 133.071 48.2208H133.361L133.591 47.9808C134.781 45.7108 134.161 46.3308 134.451 43.8208V43.6808C134.451 42.6808 133.361 41.2208 129.901 39.0908C128.881 38.6939 127.9 38.2017 126.971 37.6208C125.081 36.6208 123.281 35.1108 123.281 32.7908C123.281 29.5808 123.851 23.9008 126.831 22.1008C128.391 21.1008 130.831 21.1008 132.561 21.1008C134.491 21.1008 136.391 22.1008 138.141 22.9908C139.156 23.3698 140.065 23.9872 140.791 24.7908C141.451 25.6408 141.641 27.5308 141.791 28.4308C141.932 28.9412 142.026 29.4634 142.071 29.9908C142.071 31.1308 141.791 31.1808 141.461 31.8908C140.782 32.2875 140.024 32.5299 139.241 32.6008C138.475 32.6018 137.712 32.5043 136.971 32.3108C136.921 32.3108 136.631 32.3108 136.631 32.2208C136.631 32.1308 136.541 32.1208 136.541 32.0808L136.451 32.1708H136.401C136.139 32.0122 135.92 31.7915 135.763 31.5282C135.606 31.2649 135.516 30.967 135.501 30.6608C135.501 30.4208 135.311 28.8108 135.311 28.6608L134.981 27.0508C134.841 26.3408 134.181 24.7808 133.371 24.7808H131.431C131.431 24.7808 131.151 24.7808 131.101 24.8308C131.051 24.8808 130.201 25.4408 130.101 25.5408C129.631 25.8708 128.821 29.6108 129.161 30.7008C129.251 31.2608 129.111 31.6008 129.581 32.0708L129.771 32.2608C130.1 32.6831 130.521 33.0251 131.001 33.2608L136.631 36.6208C140.631 39.0308 141.551 40.6208 141.551 43.3408V43.6708H141.461C141.477 43.8135 141.507 43.9542 141.551 44.0908V44.1908C141.551 44.6608 141.321 44.7508 141.411 45.3208C141.321 45.1808 141.321 45.2308 141.171 45.2308C141.171 46.0308 141.081 46.3608 141.081 46.6508L140.891 47.0708C140.841 47.0708 140.891 47.0708 140.891 47.1708C140.371 48.7482 139.526 50.1993 138.411 51.4308C137.041 52.8508 132.781 53.4308 131.031 53.4308C125.541 53.4308 124.121 49.1308 124.121 44.4908C124.086 43.5534 124.149 42.6149 124.311 41.6908ZM134.681 45.8508V45.7608C134.681 45.7608 134.631 45.8508 134.681 45.8508ZM140.971 46.8508C140.968 46.8252 140.97 46.7991 140.979 46.7747C140.988 46.7503 141.002 46.7284 141.021 46.7108C140.971 46.8008 140.971 46.8908 140.971 46.8408V46.8508ZM141.021 46.6708C141.049 46.3351 141.095 46.0012 141.161 45.6708C141.166 46.0061 141.119 46.34 141.021 46.6608V46.6708Z" fill="#FCF0D4"/>
<path d="M34.3916 65.6008L34.5516 64.9708C34.6416 64.6508 35.0516 64.6308 35.1816 64.4108C35.5996 64.4033 36.0169 64.3732 36.4316 64.3208C36.7897 64.3556 37.1335 64.4794 37.4316 64.6808C37.7716 65.0408 37.6616 65.4708 37.6816 65.9508V66.1508V66.2408C37.5616 67.8208 37.5916 69.4108 37.5616 70.9908C37.5616 70.9908 37.5616 71.1708 37.5616 71.1908C37.5616 71.2108 37.5616 71.7608 37.5116 71.9808V72.0308C37.5116 72.1208 37.5616 72.8908 37.5616 72.9808C37.5616 74.2208 37.6716 75.4708 37.7816 76.7108C37.7917 76.8306 37.7917 76.951 37.7816 77.0708V76.9808H42.0116C42.5316 77.0508 42.6216 77.7708 42.6216 78.1308C42.6216 78.4908 42.6216 78.6108 42.6216 78.8808C42.6216 78.9708 42.4816 79.0808 42.3916 79.0808L42.3016 78.8408H42.2116C42.2116 78.8408 42.2116 79.0808 42.0916 79.0808C41.9116 79.0808 41.8416 79.2408 41.7716 79.2408L41.5416 79.1908C41.3473 79.1934 41.1535 79.2101 40.9616 79.2408C40.3017 79.3713 39.6333 79.4548 38.9616 79.4908H38.8416L38.7816 79.4308C38.4216 79.4308 38.0116 79.5008 37.6516 79.4808C37.1538 79.6823 36.6273 79.8038 36.0916 79.8408H35.9116V79.7908L35.7816 79.8408H35.6416C35.2816 79.8408 35.2316 79.7208 35.1416 79.4808C35.1381 79.4643 35.1381 79.4473 35.1416 79.4308C35.1416 79.4308 35.0716 79.2508 35.0716 79.2308C35.0654 79.191 35.0654 79.1506 35.0716 79.1108L34.4816 69.3208L34.3916 65.6008Z" fill="#FCF0D4"/>
<path d="M43.7109 78.7409C43.7109 78.6109 43.8009 78.4909 43.8009 78.3809C43.8009 78.2709 43.8009 78.1509 43.8009 78.0609C43.8009 77.9709 43.8909 77.8209 43.9609 77.6309C44.2109 75.9409 44.6609 74.4009 45.0509 72.7509C45.1575 72.0879 45.3215 71.4355 45.5409 70.8009C45.5409 70.8009 46.1309 68.7009 46.1309 68.5909C46.4709 67.3509 46.8109 66.0809 47.0609 64.8109L47.2609 64.3809H47.4109C47.6809 64.3809 47.9109 64.4909 48.1809 64.4909H48.3409H48.4109C48.4109 64.4909 48.4109 64.5609 48.4809 64.5609C48.5509 64.5609 48.5909 64.5609 48.6109 64.5609C49.4947 64.5751 50.3379 64.9339 50.9609 65.5609C51.4609 66.0109 51.8009 68.6409 51.9609 69.3409C52.2609 70.5609 52.5509 71.7609 52.8609 72.9609V73.3409C53.0209 73.4109 53.1409 74.6509 53.2009 74.9009L53.2909 74.9709C53.3609 75.1709 53.3609 75.4209 53.4309 75.5809C53.5009 75.7409 53.6109 75.8709 53.6309 75.9209C53.9396 76.5916 54.1679 77.2965 54.3109 78.0209L54.5109 78.2009C54.5109 78.2909 54.4209 78.3109 54.4209 78.3809V78.4409C54.4209 78.4409 54.4909 78.5609 54.5109 78.5609C54.4009 78.7409 54.5109 78.9209 54.4009 78.9209C54.2909 78.9209 54.1809 78.9209 54.1509 78.9209C54.1209 78.9209 54.0609 79.0609 54.0609 79.0609C53.7358 79.1539 53.3992 79.201 53.0609 79.2009H52.4209H52.3309C52.2409 79.2009 51.8109 79.2009 51.7209 79.1309C51.6509 79.0809 51.6309 79.0809 51.6309 79.0109C51.6309 78.9409 51.6309 78.9209 51.7409 78.9209C51.5409 78.7709 51.4509 78.2909 51.3109 78.2009C51.1709 78.1109 51.3109 77.9309 51.3109 77.8609C51.2345 77.6868 51.1743 77.506 51.1309 77.3209C51.0641 77.1588 51.0106 76.9916 50.9709 76.8209C50.8809 76.5709 50.8609 76.0509 50.5909 76.0109C50.4012 75.996 50.2106 75.996 50.0209 76.0109C49.8009 76.0109 49.6109 76.2109 49.4109 76.2809C48.8822 76.4883 48.3266 76.6196 47.7609 76.6709C47.8414 76.6382 47.9252 76.6147 48.0109 76.6009C48.0109 76.6009 48.1909 76.6009 48.2309 76.6009L48.5509 76.4709C48.5509 76.4709 48.5509 76.4709 48.6209 76.4709H48.5509C48.1409 76.4709 47.7409 76.6509 47.3309 76.6509C47.2905 76.6388 47.253 76.6184 47.2209 76.5909C46.9009 76.5909 47.0109 76.7709 46.9209 77.0609C46.9209 77.1309 46.8509 77.1309 46.9209 77.2209L46.6909 78.2209C46.5739 78.3919 46.4954 78.5864 46.4609 78.7909C46.2809 78.8509 46.3709 79.1009 46.1909 79.1909C46.0109 79.2809 45.7209 79.2809 45.5109 79.3809C45.5109 79.3809 45.4009 79.4409 45.4009 79.4709C45.3824 79.4709 45.3646 79.4635 45.3514 79.4504C45.3383 79.4372 45.3309 79.4194 45.3309 79.4009C45.2109 79.4009 44.1709 79.6009 43.7709 78.8809L43.7109 78.7409ZM48.3009 72.2109C48.1322 72.5972 48.0016 72.9991 47.9109 73.4109H48.0709L49.8809 73.2009L49.9309 73.1309C49.9045 73.0532 49.8877 72.9726 49.8809 72.8909C49.7009 72.3209 49.5009 71.7509 49.3409 71.1709C49.2209 70.7409 49.1309 70.2609 48.9809 69.8309C48.7809 70.6209 48.5709 71.4309 48.3009 72.2109ZM53.4109 78.4009C53.4085 78.3733 53.3989 78.3468 53.3831 78.324C53.3673 78.3012 53.3459 78.2829 53.3209 78.2709C53.3209 78.4309 53.3409 78.4309 53.4109 78.4309V78.4009Z" fill="#FCF0D4"/>
<path d="M51.2311 178.191C46.7011 179.961 42.5411 163.361 43.5811 158.611C44.6211 153.861 51.6611 151.841 55.0511 155.331C55.9011 156.211 56.5611 157.331 57.6911 157.841C59.5411 158.621 61.5811 157.221 62.8911 155.691C64.2011 154.161 65.4311 152.311 67.3811 151.811C68.3887 151.644 69.4228 151.771 70.3607 152.175C71.2985 152.579 72.1004 153.244 72.6711 154.091C73.7861 155.801 74.554 157.714 74.9311 159.721C77.3311 156.361 79.9311 152.851 83.7011 151.231C87.4711 149.611 92.8111 150.831 94.1511 154.731C94.5111 155.801 94.7811 157.221 95.8911 157.451C96.8211 157.641 97.6111 156.801 98.2011 156.051C99.4957 154.106 101.203 152.471 103.201 151.261C105.271 150.201 108.071 150.211 109.661 151.911C110.602 153.143 111.174 154.617 111.311 156.161C111.861 159.161 111.791 162.611 109.121 164.161C108.241 164.661 110.421 178.311 109.411 178.341C80.7711 179.341 77.9111 178.221 51.2511 178.211" fill="#FCF0D4"/>
<path d="M50.7808 176.431C48.4808 176.981 46.5108 168.531 46.1708 167.121C45.2808 163.401 43.7408 157.281 48.6508 155.731C53.7108 154.131 54.7508 160.201 59.3708 159.731C61.0093 159.458 62.511 158.649 63.6408 157.431C64.2608 156.841 65.0008 155.321 65.7708 155.001L71.9508 156.201C72.4968 157.465 72.9252 158.778 73.2308 160.121C73.3349 160.453 73.5321 160.748 73.7989 160.972C74.0657 161.195 74.391 161.337 74.7362 161.382C75.0814 161.426 75.4321 161.37 75.7466 161.221C76.0611 161.072 76.3263 160.836 76.5107 160.541C78.7407 157.451 81.4508 153.541 85.3908 152.481C87.3908 151.971 90.2108 152.311 91.6708 153.901C92.6708 154.901 92.5707 156.691 93.5107 157.701C96.7107 161.171 99.0108 157.331 101.271 155.061C103.531 152.791 106.541 150.301 109.271 155.061C110.008 156.881 110.11 158.896 109.561 160.781C109.011 162.161 107.561 162.781 107.201 164.331C106.421 167.251 107.571 171.271 107.771 174.241C107.868 174.903 107.908 175.572 107.891 176.241C107.661 178.471 107.891 176.351 107.461 176.501C104.611 177.351 100.241 176.711 97.2607 176.761C92.2741 176.861 87.2741 176.861 82.2607 176.761C71.9207 176.601 61.5907 176.281 51.2607 176.271C50.786 176.271 50.3307 176.459 49.995 176.795C49.6593 177.131 49.4708 177.586 49.4708 178.061C49.4708 178.536 49.6593 178.991 49.995 179.327C50.3307 179.662 50.786 179.851 51.2607 179.851C64.7308 179.851 78.2008 180.491 91.6708 180.391C95.6708 180.391 99.7408 180.281 103.781 180.171C105.831 180.111 109.671 180.991 111.091 179.001C112.851 176.541 110.961 170.221 110.811 167.471C110.661 164.871 111.491 164.961 112.561 162.761C113.831 160.141 113.501 156.761 112.731 154.031C111.131 148.361 105.281 147.271 100.731 150.591C100.031 151.111 97.4808 154.591 96.9208 154.651C95.7108 154.711 95.3808 152.941 94.9208 152.241C94.1802 151.248 93.2394 150.422 92.1594 149.815C91.0793 149.209 89.884 148.836 88.6507 148.721C81.6507 147.801 77.0408 153.631 73.4108 158.721L76.6807 159.151C74.6807 151.741 69.3108 146.891 62.8308 152.921C61.1908 154.441 61.1107 156.791 57.1507 154.921C56.5907 154.651 56.0308 153.681 55.4908 153.271C54.3672 152.446 53.0462 151.932 51.6608 151.781C50.2477 151.616 48.8156 151.769 47.4695 152.23C46.1233 152.69 44.8972 153.445 43.8808 154.441C39.9708 158.441 41.8808 165.511 43.2808 170.191C44.3608 173.831 46.6408 181.061 51.7308 179.841C53.9708 179.301 53.0208 175.841 50.7308 176.381L50.7808 176.431Z" fill="#FCF0D4"/>
<path d="M46.3008 178.361L111.621 176.061C111.621 176.061 114.091 236.321 109.681 238.871C105.271 241.421 108.221 241.411 103.261 246.571C98.5308 251.491 103.261 257.891 98.3408 256.291C98.3408 256.291 69.8608 256.981 66.5208 255.051C63.1808 253.121 62.5208 262.811 60.1008 254.781C57.6808 246.751 54.2608 244.781 54.2608 244.781L47.9508 243.071L46.3008 178.361Z" fill="#FED650"/>
<g style="mix-blend-mode:multiply">
<path d="M98.3407 256.291C97.9107 259.061 93.7907 260.031 91.0307 260.531C82.6707 262.031 79.8407 262.981 73.5307 263.191C67.5307 263.381 60.8607 264.141 52.9407 263.191C49.4176 262.791 45.9597 261.944 42.6507 260.671C41.9507 260.371 41.1907 259.871 41.1407 259.111C41.0907 258.351 41.9907 257.611 42.8107 257.271C47.3707 255.371 52.5107 255.871 57.4407 256.211C69.7207 257.051 86.1407 257.851 98.3407 256.261" fill="#40B4C5"/>
<path d="M96.6108 255.811C95.4708 259.171 86.8908 259.491 84.1408 260.021C80.3948 260.775 76.5975 261.246 72.7808 261.431C68.3708 261.621 63.9708 261.941 59.5608 261.861C56.7783 261.829 54.0015 261.602 51.2508 261.181C50.2508 261.021 44.8208 260.391 44.4608 259.491C43.5308 257.201 55.9508 257.941 57.4608 258.041C61.7208 258.331 65.9808 258.591 70.2508 258.761C79.6236 259.293 89.024 259.069 98.3608 258.091C100.621 257.811 100.651 254.221 98.3608 254.501C85.3108 256.081 72.0408 255.421 58.9508 254.561C53.6008 254.201 47.1808 253.211 42.1308 255.671C39.1908 257.101 38.5008 259.971 41.2708 261.951C45.2108 264.781 52.1308 265.091 56.8208 265.351C63.3016 265.616 69.7929 265.446 76.2508 264.841C81.3882 264.295 86.4877 263.436 91.5208 262.271C95.1408 261.531 98.8008 260.581 100.091 256.771C100.831 254.581 97.3708 253.641 96.6308 255.821L96.6108 255.811Z" fill="#40B4C5"/>
</g>
<path d="M64.5313 188.841C64.5267 188.818 64.5267 188.794 64.5313 188.771C64.4762 188.694 64.4161 188.62 64.3513 188.551C57.9713 181.921 58.4613 192.931 58.5113 197.311C58.5779 203.437 58.7646 209.564 59.0713 215.691C59.2313 218.911 59.4213 222.131 59.6413 225.351C59.7613 227.031 59.6413 229.221 60.6413 230.671C65.2513 237.171 67.9413 222.211 68.1113 219.961C68.5413 214.281 67.7913 208.531 67.2113 202.891C66.6613 198.371 66.8913 192.811 64.5313 188.841ZM64.8013 219.921C64.6575 221.955 64.292 223.966 63.7113 225.921C62.6013 229.521 62.8613 228.331 62.8013 225.301C62.6613 218.541 62.0113 211.771 61.8013 205.001C61.7079 201.781 61.6513 198.554 61.6313 195.321C61.6313 195.011 61.7913 191.511 61.2713 189.961L61.7613 190.531C63.6013 193.701 63.4113 198.351 63.7613 201.941C64.0913 205.151 64.4413 208.361 64.6613 211.581C64.9067 214.354 64.9468 217.142 64.7813 219.921H64.8013Z" fill="#075672"/>
<path d="M82.3814 184.921C82.3391 184.79 82.2856 184.663 82.2214 184.541C82.1686 184.431 82.1049 184.328 82.0314 184.231C80.9314 182.461 79.2914 180.941 77.2714 182.601C74.8614 184.601 75.7514 189.791 75.6214 192.421C75.2914 199.508 75.3214 206.607 75.7114 213.691C75.8781 216.911 76.1281 220.124 76.4614 223.331C76.6914 225.591 76.5314 228.621 77.4614 230.731C78.3914 232.841 80.3214 233.941 82.3514 232.431C85.5814 230.041 85.5914 222.881 85.9314 219.261C86.4333 212.789 86.2893 206.284 85.5014 199.841C84.9714 194.571 84.5514 189.741 82.3814 184.921ZM82.8014 218.341C82.6085 220.639 82.2745 222.923 81.8014 225.181C81.4614 226.841 81.5214 230.261 80.0814 227.181C78.8314 224.511 79.2914 219.581 79.0814 216.591C78.8414 213.051 78.6814 209.511 78.6214 205.961C78.5547 202.101 78.5947 198.234 78.7414 194.361C78.8114 192.431 78.9414 190.501 79.0414 188.561C79.0914 187.561 78.5014 184.561 79.4114 186.181C82.4614 192.681 82.5914 201.081 82.9014 208.181C83.0819 211.567 83.0418 214.96 82.7814 218.341H82.8014Z" fill="#075672"/>
<path d="M96.7809 184.561C96.5005 184.699 96.275 184.928 96.1409 185.211C96.0491 185.359 95.9816 185.521 95.9409 185.691C93.7609 190.691 93.5409 195.741 93.3109 201.131C93.0309 207.838 93.0575 214.544 93.3909 221.251C93.5309 223.921 92.8809 229.811 95.9909 231.361C98.8309 232.771 100.581 229.591 101.471 227.451C105.391 218.061 103.081 206.751 103.131 196.841C103.141 194.221 102.621 179.361 96.7809 184.561ZM99.4509 223.431C99.1709 224.481 98.3909 228.891 97.1009 227.701C96.4009 227.061 96.7109 223.141 96.6609 222.241C96.4709 218.731 96.3509 215.241 96.3309 211.701C96.3309 203.971 95.5609 194.571 98.7109 187.351C99.2814 190.225 99.6821 193.13 99.9109 196.051C99.9109 198.541 99.7109 201.051 99.7309 203.511C99.7809 210.161 101.181 216.801 99.4509 223.431Z" fill="#075672"/>
<path d="M126.661 198.121C126.291 191.121 125.991 181.611 123.051 175.121C120.761 170.061 116.261 172.481 112.211 174.121C111.851 170.761 111.441 167.421 110.961 164.121C110.771 162.791 109.401 162.691 108.541 163.341C87.741 165.571 67.041 164.581 46.191 165.401C45.9307 165.409 45.6764 165.481 45.451 165.611C45.1783 165.725 44.948 165.921 44.792 166.172C44.6361 166.423 44.5623 166.716 44.581 167.011C45.041 187.951 44.491 208.891 44.761 229.821C44.851 236.311 43.761 244.581 51.171 247.311C52.4265 247.759 53.7277 248.068 55.051 248.231C52.781 259.681 73.981 258.541 80.471 258.771C86.181 258.971 92.701 259.921 98.111 257.531C102.891 255.421 102.261 251.981 104.961 248.421C106.481 246.421 108.721 245.971 110.031 243.671C111.151 241.671 111.261 239.211 111.551 237.011C112.061 233.181 112.471 229.341 112.811 225.491C117.151 224.781 121.941 222.491 124.451 218.961C128.261 213.621 126.981 204.151 126.661 198.121ZM116.661 183.121C118.011 188.671 118.091 194.261 117.971 199.971C117.851 205.681 118.911 212.031 113.541 215.311C113.591 214.311 113.651 213.241 113.691 212.211C114.018 202.775 113.834 193.328 113.141 183.911C114.268 183.518 115.435 183.25 116.621 183.111L116.661 183.121ZM108.131 238.431C107.541 241.841 105.401 242.501 103.001 244.791C102.181 245.391 101.528 246.189 101.101 247.111C100.101 249.351 100.621 251.601 98.611 253.441C96.831 255.071 93.931 255.491 91.611 255.691C86.431 256.131 81.061 255.521 75.871 255.331C73.191 255.241 70.481 255.261 67.811 255.041C63.981 254.721 57.811 253.131 58.381 248.471C60.431 248.561 62.481 248.521 64.381 248.541C70.471 248.631 76.551 248.431 82.631 248.011C84.691 247.871 84.711 244.651 82.631 244.791C75.061 245.311 66.271 246.341 58.361 245.451C58.0999 245.246 57.7888 245.115 57.46 245.071C57.1312 245.027 56.7966 245.072 56.491 245.201C55.631 245.061 54.781 244.911 53.951 244.721C47.201 243.171 48.051 236.921 47.951 231.451C47.891 227.451 47.8576 223.451 47.851 219.451C47.851 202.451 48.101 185.451 47.771 168.511C67.911 167.811 87.921 168.661 108.011 166.511C110.581 184.991 111.611 204.311 110.011 223.131C109.865 223.373 109.778 223.645 109.755 223.926C109.733 224.207 109.776 224.489 109.881 224.751C109.468 229.371 108.884 233.931 108.131 238.431ZM122.781 214.901C121.481 218.751 117.061 221.331 113.031 222.161C113.111 221.061 113.201 219.961 113.271 218.861C113.486 218.853 113.696 218.802 113.891 218.711C120.621 215.651 120.891 211.901 121.011 204.961C121.191 196.891 121.571 188.841 119.371 180.961C119.276 180.623 119.073 180.325 118.793 180.112C118.514 179.899 118.172 179.783 117.821 179.781C116.131 179.897 114.456 180.179 112.821 180.621C112.721 179.541 112.631 178.461 112.521 177.381C114.041 176.711 116.791 175.221 117.991 175.431C120.991 175.951 121.071 180.431 121.521 182.681C122.566 188.076 123.215 193.541 123.461 199.031C123.711 203.921 124.401 210.221 122.781 214.901Z" fill="#075672"/>
</svg>
